<svg width="47" height="44" viewBox="0 0 47 44" fill="none" xmlns="http://www.w3.org/2000/svg">
<path d="M46.9995 42.779C46.6832 43.693 46.0161 43.9835 45.0821 43.98C39.0712 43.957 33.0581 44.0719 27.0518 43.9249C21.7276 43.794 17.036 41.8972 13.2047 38.1083C12.3386 37.2518 11.5841 36.2965 10.9573 35.2298C11.1471 35.1334 11.315 35.177 11.476 35.1759C14.1835 35.1713 16.8911 35.2126 19.5963 35.1598C24.8883 35.0565 29.6949 33.4686 33.8782 30.2043C37.4644 27.4062 39.8718 23.8171 40.7988 19.3151C40.9 18.8237 40.9748 18.3254 41.0243 17.8259C41.0726 17.3311 41.1554 16.8397 41.1036 16.207C41.6097 16.6571 42.0376 16.9935 42.4148 17.3782C44.8877 19.9041 46.5371 22.8423 46.9155 26.4108C46.9213 26.4624 46.9696 26.5107 46.9983 26.56C46.9983 27.4453 46.9983 28.3317 46.9983 29.2169C46.774 29.6922 46.8062 30.2192 46.6924 30.7175C46.1161 33.2527 44.9705 35.4951 43.2303 37.4297C42.9876 37.6984 42.9209 37.8718 43.2361 38.1646C44.009 38.8799 44.7428 39.6388 45.4812 40.3908C46.0218 40.942 46.6452 41.423 46.9995 42.1361C46.9995 42.3508 46.9995 42.5655 46.9995 42.779Z" fill="#FF9752"/>
<path d="M10.7078 32.2408C7.69432 32.2408 4.68083 32.2431 1.66735 32.2397C0.781706 32.2386 0.214665 31.8229 0.040987 31.0594C-0.0924345 30.475 0.154855 30.018 0.551669 29.6207C1.62134 28.5506 2.68181 27.4714 3.77104 26.4219C4.04938 26.1533 4.02868 25.9994 3.78829 25.7296C2.06876 23.803 0.882922 21.5928 0.334284 19.0611C-0.259211 16.3192 -0.076332 13.6325 0.99449 11.0273C2.83249 6.55409 6.18182 3.61364 10.5422 1.71916C13.4613 0.45044 16.53 -0.0742718 19.7022 0.00839612C23.2126 0.0991012 26.547 0.928077 29.5996 2.67214C33.9047 5.13151 36.9389 8.61505 37.9373 13.5912C38.5722 16.7578 38.0661 19.7936 36.534 22.6284C34.1555 27.0282 30.3817 29.7114 25.6936 31.227C23.4783 31.9435 21.1963 32.2294 18.8764 32.2385C16.1528 32.2477 13.4303 32.2408 10.7078 32.2408ZM19.0409 14.6452C21.1503 14.6452 23.2598 14.6452 25.3704 14.6452C26.2261 14.6452 27.083 14.659 27.9387 14.6383C28.707 14.62 29.3074 14.0332 29.3661 13.2904C29.4236 12.559 28.8968 11.8747 28.155 11.7415C27.9617 11.7071 27.7593 11.7162 27.5603 11.7162C21.9187 11.7151 16.2781 11.7151 10.6365 11.7151C10.4835 11.7151 10.3294 11.7059 10.1787 11.7231C9.56337 11.7943 9.12285 12.1112 8.90776 12.6956C8.54775 13.6704 9.27122 14.6383 10.3742 14.6418C13.2624 14.651 16.1516 14.6452 19.0409 14.6452ZM16.1585 20.51C18.0851 20.51 20.0105 20.5135 21.9371 20.5089C22.6306 20.5066 23.162 20.1633 23.3909 19.5904C23.7923 18.5903 23.0596 17.5845 21.9095 17.5834C18.0724 17.5776 14.2354 17.5788 10.3996 17.5834C9.4702 17.5845 8.80885 18.2149 8.81805 19.0611C8.8261 19.9073 9.4863 20.5077 10.4283 20.51C12.3365 20.5135 14.2469 20.51 16.1585 20.51Z" fill="#FF6600"/>
</svg>
