<svg width="22" height="22" viewBox="0 0 22 22" fill="none" xmlns="http://www.w3.org/2000/svg">
<g clip-path="url(#clip0_322_173)">
<path d="M11.6875 0.6875C11.6875 0.309375 11.3781 0 11 0C10.6219 0 10.3125 0.309375 10.3125 0.6875V14.1539L5.98555 9.82695C5.71914 9.56055 5.28086 9.56055 5.01445 9.82695C4.74805 10.0934 4.74805 10.5316 5.01445 10.798L10.5145 16.298C10.7809 16.5645 11.2191 16.5645 11.4855 16.298L16.9855 10.798C17.252 10.5316 17.252 10.0934 16.9855 9.82695C16.7191 9.56055 16.2809 9.56055 16.0145 9.82695L11.6875 14.1539V0.6875ZM6.01992 13.75H2.75C1.2332 13.75 0 14.9832 0 16.5V19.25C0 20.7668 1.2332 22 2.75 22H19.25C20.7668 22 22 20.7668 22 19.25V16.5C22 14.9832 20.7668 13.75 19.25 13.75H15.9801L14.6051 15.125H19.25C20.0105 15.125 20.625 15.7395 20.625 16.5V19.25C20.625 20.0105 20.0105 20.625 19.25 20.625H2.75C1.98945 20.625 1.375 20.0105 1.375 19.25V16.5C1.375 15.7395 1.98945 15.125 2.75 15.125H7.39492L6.01992 13.75ZM18.5625 17.875C18.5625 17.6015 18.4538 17.3392 18.2605 17.1458C18.0671 16.9524 17.8048 16.8438 17.5312 16.8438C17.2577 16.8438 16.9954 16.9524 16.802 17.1458C16.6087 17.3392 16.5 17.6015 16.5 17.875C16.5 18.1485 16.6087 18.4108 16.802 18.6042C16.9954 18.7976 17.2577 18.9062 17.5312 18.9062C17.8048 18.9062 18.0671 18.7976 18.2605 18.6042C18.4538 18.4108 18.5625 18.1485 18.5625 17.875Z" fill="black"/>
</g>
<defs>
<clipPath id="clip0_322_173">
<rect width="22" height="22" fill="white"/>
</clipPath>
</defs>
</svg>
