<svg width="30" height="30" viewBox="0 0 30 30" fill="none" xmlns="http://www.w3.org/2000/svg">
<path d="M22.8924 6.63141L23.3686 7.10765C23.8606 7.59963 23.8606 8.3986 23.3686 8.89058L22.3177 9.94145L20.0585 7.68228L21.1094 6.63141C21.6014 6.13943 22.4004 6.13943 22.8924 6.63141ZM12.4387 15.3021L19.169 8.57178L21.4282 10.831L14.6979 17.5613C14.5326 17.7266 14.3201 17.8446 14.0918 17.8997L11.5099 18.494L12.1042 15.9082C12.1554 15.6799 12.2734 15.4674 12.4427 15.3021H12.4387ZM20.2199 5.73797L11.5492 14.4126C11.2147 14.7471 10.9825 15.1683 10.8762 15.6288L10.0536 19.1946C10.0064 19.4072 10.0694 19.6276 10.2229 19.7811C10.3764 19.9346 10.5968 19.9975 10.8093 19.9503L14.3752 19.1277C14.8357 19.0215 15.2568 18.7892 15.5914 18.4547L24.262 9.78009C25.246 8.79612 25.246 7.20211 24.262 6.21814L23.7858 5.73797C22.8018 4.75401 21.2078 4.75401 20.2239 5.73797H20.2199ZM8.14868 7.36741C6.40903 7.36741 5 8.77644 5 10.5161V21.8513C5 23.591 6.40903 25 8.14868 25H19.4839C21.2236 25 22.6326 23.591 22.6326 21.8513V16.8134C22.6326 16.4671 22.3492 16.1837 22.0029 16.1837C21.6565 16.1837 21.3731 16.4671 21.3731 16.8134V21.8513C21.3731 22.8943 20.5269 23.7405 19.4839 23.7405H8.14868C7.10568 23.7405 6.25947 22.8943 6.25947 21.8513V10.5161C6.25947 9.47309 7.10568 8.62688 8.14868 8.62688H13.1866C13.5329 8.62688 13.8163 8.3435 13.8163 7.99715C13.8163 7.65079 13.5329 7.36741 13.1866 7.36741H8.14868Z" fill="black"/>
</svg>
