<svg width="23" height="30" viewBox="0 0 23 30" fill="none" xmlns="http://www.w3.org/2000/svg">
<g clip-path="url(#clip0_416_1410)">
<path d="M19.1667 28.125H3.83333C2.77318 28.125 1.91667 27.2871 1.91667 26.25V3.75C1.91667 2.71289 2.77318 1.875 3.83333 1.875H11.5V8.4375C11.5 9.99023 12.7878 11.25 14.375 11.25H21.0833V26.25C21.0833 27.2871 20.2268 28.125 19.1667 28.125ZM14.375 9.375C13.8479 9.375 13.4167 8.95312 13.4167 8.4375V1.9043C13.5844 1.94531 13.7401 2.02734 13.8599 2.15039L20.8018 8.94141C20.9276 9.06445 21.0115 9.21094 21.0534 9.375H14.375ZM3.83333 0C1.71901 0 0 1.68164 0 3.75V26.25C0 28.3184 1.71901 30 3.83333 30H19.1667C21.281 30 23 28.3184 23 26.25V9.60352C23 8.85938 22.6945 8.14453 22.1555 7.61719L15.2195 0.826172C14.6805 0.298828 13.9497 0 13.1891 0H3.83333ZM8.93047 14.4609C8.625 14.0391 8.03203 13.9336 7.59479 14.2324C7.15755 14.5312 7.05573 15.1113 7.3612 15.5391L10.332 19.6875L7.3612 23.8359C7.05573 24.2578 7.16354 24.8438 7.59479 25.1426C8.02604 25.4414 8.625 25.3359 8.93047 24.9141L11.5 21.3223L14.0695 24.9141C14.375 25.3359 14.968 25.4414 15.4052 25.1426C15.8424 24.8438 15.9443 24.2637 15.6388 23.8359L12.668 19.6875L15.6388 15.5391C15.9443 15.1172 15.8365 14.5312 15.4052 14.2324C14.974 13.9336 14.375 14.0391 14.0695 14.4609L11.5 18.0527L8.93047 14.4609Z" fill="#ABABAB"/>
</g>
<defs>
<clipPath id="clip0_416_1410">
<rect width="23" height="30" fill="white"/>
</clipPath>
</defs>
</svg>
