<svg width="29" height="29" viewBox="0 0 29 29" fill="none" xmlns="http://www.w3.org/2000/svg">
<g clip-path="url(#clip0_416_1408)">
<path d="M3.625 27.1875H5.4375V29H3.625C1.62559 29 0 27.3744 0 25.375V3.625C0 1.62559 1.62559 0 3.625 0H12.4666C13.1859 0 13.877 0.288867 14.3867 0.798633L20.9514 7.35762C21.4611 7.86738 21.75 8.5584 21.75 9.27773V16.3125H19.9375V10.875H13.5938C12.0928 10.875 10.875 9.65723 10.875 8.15625V1.8125H3.625C2.62246 1.8125 1.8125 2.62246 1.8125 3.625V25.375C1.8125 26.3775 2.62246 27.1875 3.625 27.1875ZM19.9092 9.0625C19.8695 8.90391 19.7902 8.75664 19.6713 8.64336L13.1066 2.07871C12.9877 1.95977 12.8461 1.88047 12.6875 1.84082V8.15625C12.6875 8.65469 13.0953 9.0625 13.5938 9.0625H19.9092ZM11.3281 19.9375H12.2344C13.4861 19.9375 14.5 20.9514 14.5 22.2031V22.6562C14.5 23.1547 14.0922 23.5625 13.5938 23.5625C13.0953 23.5625 12.6875 23.1547 12.6875 22.6562V22.2031C12.6875 21.9539 12.4836 21.75 12.2344 21.75H11.3281C11.0789 21.75 10.875 21.9539 10.875 22.2031V26.7344C10.875 26.9836 11.0789 27.1875 11.3281 27.1875H12.2344C12.4836 27.1875 12.6875 26.9836 12.6875 26.7344V26.2812C12.6875 25.7828 13.0953 25.375 13.5938 25.375C14.0922 25.375 14.5 25.7828 14.5 26.2812V26.7344C14.5 27.9861 13.4861 29 12.2344 29H11.3281C10.0764 29 9.0625 27.9861 9.0625 26.7344V22.2031C9.0625 20.9514 10.0764 19.9375 11.3281 19.9375ZM18.867 19.9375H20.8438C21.3422 19.9375 21.75 20.3453 21.75 20.8438C21.75 21.3422 21.3422 21.75 20.8438 21.75H18.867C18.4592 21.75 18.125 22.0842 18.125 22.492C18.125 22.7865 18.2949 23.0527 18.5668 23.1717L20.6852 24.1119C21.6084 24.5197 22.2031 25.4373 22.2031 26.4455C22.2031 27.8559 21.059 29 19.6486 29H17.2188C16.7203 29 16.3125 28.5922 16.3125 28.0938C16.3125 27.5953 16.7203 27.1875 17.2188 27.1875H19.6486C20.0564 27.1875 20.3906 26.8533 20.3906 26.4455C20.3906 26.151 20.2207 25.8848 19.9488 25.7658L17.8305 24.8256C16.9072 24.4178 16.3125 23.5002 16.3125 22.492C16.3125 21.0816 17.4566 19.9375 18.867 19.9375ZM24.4688 19.9375C24.9672 19.9375 25.375 20.3453 25.375 20.8438V22.6336C25.375 23.9363 25.6865 25.2164 26.2812 26.3719C26.876 25.2221 27.1875 23.942 27.1875 22.6336V20.8438C27.1875 20.3453 27.5953 19.9375 28.0938 19.9375C28.5922 19.9375 29 20.3453 29 20.8438V22.6336C29 24.599 28.4166 26.5248 27.3234 28.1617L27.0346 28.5979C26.8646 28.8527 26.5814 29 26.2812 29C25.9811 29 25.6979 28.8471 25.5279 28.5979L25.2391 28.1617C24.1459 26.5248 23.5625 24.599 23.5625 22.6336V20.8438C23.5625 20.3453 23.9703 19.9375 24.4688 19.9375Z" fill="#ABABAB"/>
</g>
<defs>
<clipPath id="clip0_416_1408">
<rect width="29" height="29" fill="white"/>
</clipPath>
</defs>
</svg>
