<svg width="52" height="40" viewBox="0 0 52 40" fill="none" xmlns="http://www.w3.org/2000/svg">
<path d="M6.5 3.75C4.70234 3.75 3.25 5.20234 3.25 7V11.0523L23.1156 25.6164C24.832 26.8758 27.168 26.8758 28.8844 25.6164L48.75 11.0523V7C48.75 5.20234 47.2977 3.75 45.5 3.75H6.5ZM3.25 15.0844V33C3.25 34.7977 4.70234 36.25 6.5 36.25H45.5C47.2977 36.25 48.75 34.7977 48.75 33V15.0844L30.8039 28.2367C27.9398 30.3289 24.05 30.3289 21.1961 28.2367L3.25 15.0844ZM0 7C0 3.41484 2.91484 0.5 6.5 0.5H45.5C49.0852 0.5 52 3.41484 52 7V33C52 36.5852 49.0852 39.5 45.5 39.5H6.5C2.91484 39.5 0 36.5852 0 33V7Z" fill="#FF6600"/>
</svg>
