<svg width="52" height="52" viewBox="0 0 52 52" fill="none" xmlns="http://www.w3.org/2000/svg">
<path d="M9.75 16.25H6.5V6.5C6.5 2.91484 9.41484 0 13 0H36.3086C38.0352 0 39.6906 0.680469 40.9094 1.89922L43.6008 4.59063C44.8195 5.80938 45.5 7.46484 45.5 9.19141V16.25H42.25V9.19141C42.25 8.32812 41.9047 7.50547 41.2953 6.89609L38.6039 4.20469C37.9945 3.59531 37.1719 3.25 36.3086 3.25H13C11.2023 3.25 9.75 4.70234 9.75 6.5V16.25ZM45.5 22.75H6.5C4.70234 22.75 3.25 24.2023 3.25 26V39H6.5V35.75C6.5 33.9523 7.95234 32.5 9.75 32.5H42.25C44.0477 32.5 45.5 33.9523 45.5 35.75V39H48.75V26C48.75 24.2023 47.2977 22.75 45.5 22.75ZM45.5 42.25V48.75C45.5 50.5477 44.0477 52 42.25 52H9.75C7.95234 52 6.5 50.5477 6.5 48.75V42.25H3.25C1.45234 42.25 0 40.7977 0 39V26C0 22.4148 2.91484 19.5 6.5 19.5H45.5C49.0852 19.5 52 22.4148 52 26V39C52 40.7977 50.5477 42.25 48.75 42.25H45.5ZM9.75 35.75V48.75H42.25V35.75H9.75ZM43.875 25.1875C44.5215 25.1875 45.1415 25.4443 45.5986 25.9014C46.0557 26.3585 46.3125 26.9785 46.3125 27.625C46.3125 28.2715 46.0557 28.8915 45.5986 29.3486C45.1415 29.8057 44.5215 30.0625 43.875 30.0625C43.2285 30.0625 42.6085 29.8057 42.1514 29.3486C41.6943 28.8915 41.4375 28.2715 41.4375 27.625C41.4375 26.9785 41.6943 26.3585 42.1514 25.9014C42.6085 25.4443 43.2285 25.1875 43.875 25.1875Z" fill="#FF6600"/>
</svg>
