<svg width="19" height="21" viewBox="0 0 19 21" fill="none" xmlns="http://www.w3.org/2000/svg">
<path d="M10.1786 2.625C10.5518 2.625 10.8571 2.92031 10.8571 3.28125V17.7188C10.8571 18.0797 10.5518 18.375 10.1786 18.375H8.82143C8.44821 18.375 8.14286 18.0797 8.14286 17.7188V3.28125C8.14286 2.92031 8.44821 2.625 8.82143 2.625H10.1786ZM8.82143 1.3125C7.69754 1.3125 6.78571 2.19434 6.78571 3.28125V17.7188C6.78571 18.8057 7.69754 19.6875 8.82143 19.6875H10.1786C11.3025 19.6875 12.2143 18.8057 12.2143 17.7188V3.28125C12.2143 2.19434 11.3025 1.3125 10.1786 1.3125H8.82143ZM3.39286 10.5C3.76607 10.5 4.07143 10.7953 4.07143 11.1563V17.7188C4.07143 18.0797 3.76607 18.375 3.39286 18.375H2.03571C1.6625 18.375 1.35714 18.0797 1.35714 17.7188V11.1563C1.35714 10.7953 1.6625 10.5 2.03571 10.5H3.39286ZM2.03571 9.1875C0.91183 9.1875 0 10.0693 0 11.1563V17.7188C0 18.8057 0.91183 19.6875 2.03571 19.6875H3.39286C4.51674 19.6875 5.42857 18.8057 5.42857 17.7188V11.1563C5.42857 10.0693 4.51674 9.1875 3.39286 9.1875H2.03571ZM15.6071 5.25H16.9643C17.3375 5.25 17.6429 5.54531 17.6429 5.90625V17.7188C17.6429 18.0797 17.3375 18.375 16.9643 18.375H15.6071C15.2339 18.375 14.9286 18.0797 14.9286 17.7188V5.90625C14.9286 5.54531 15.2339 5.25 15.6071 5.25ZM13.5714 5.90625V17.7188C13.5714 18.8057 14.4833 19.6875 15.6071 19.6875H16.9643C18.0882 19.6875 19 18.8057 19 17.7188V5.90625C19 4.81934 18.0882 3.9375 16.9643 3.9375H15.6071C14.4833 3.9375 13.5714 4.81934 13.5714 5.90625Z" fill="white"/>
</svg>
