<svg width="30" height="30" viewBox="0 0 30 30" fill="none" xmlns="http://www.w3.org/2000/svg">
<g id="bin">
<path id="Vector" d="M12.6898 6.7047L12.0987 7.64333H17.9014L17.3103 6.7047C17.1983 6.52464 16.9974 6.41737 16.7849 6.41737H13.2113C12.9988 6.41737 12.8018 6.52464 12.6859 6.7047H12.6898ZM18.3611 6.05724L19.3617 7.64333H21.1814H22.4176H23.0357C23.3757 7.64333 23.6539 7.91917 23.6539 8.25631C23.6539 8.59345 23.3757 8.86929 23.0357 8.86929H22.4176V21.7419C22.4176 23.4352 21.0345 24.8068 19.327 24.8068H10.6731C8.96552 24.8068 7.58245 23.4352 7.58245 21.7419V8.86929H6.96432C6.62435 8.86929 6.34619 8.59345 6.34619 8.25631C6.34619 7.91917 6.62435 7.64333 6.96432 7.64333H7.58245H8.81872H10.6383L11.6389 6.05724C11.9789 5.51705 12.5739 5.19141 13.2113 5.19141H16.7849C17.4262 5.19141 18.0173 5.51705 18.3573 6.05724H18.3611ZM8.81872 8.86929V21.7419C8.81872 22.7571 9.64933 23.5808 10.6731 23.5808H19.327C20.3507 23.5808 21.1814 22.7571 21.1814 21.7419V8.86929H8.81872ZM11.9094 11.9342V20.5159C11.9094 20.8531 11.6312 21.1289 11.2912 21.1289C10.9513 21.1289 10.6731 20.8531 10.6731 20.5159V11.9342C10.6731 11.5971 10.9513 11.3212 11.2912 11.3212C11.6312 11.3212 11.9094 11.5971 11.9094 11.9342ZM15.6182 11.9342V20.5159C15.6182 20.8531 15.34 21.1289 15 21.1289C14.6601 21.1289 14.3819 20.8531 14.3819 20.5159V11.9342C14.3819 11.5971 14.6601 11.3212 15 11.3212C15.34 11.3212 15.6182 11.5971 15.6182 11.9342ZM19.327 11.9342V20.5159C19.327 20.8531 19.0488 21.1289 18.7088 21.1289C18.3689 21.1289 18.0907 20.8531 18.0907 20.5159V11.9342C18.0907 11.5971 18.3689 11.3212 18.7088 11.3212C19.0488 11.3212 19.327 11.5971 19.327 11.9342Z" fill="#FF5050"/>
</g>
</svg>
