<svg width="30" height="30" viewBox="0 0 30 30" fill="none" xmlns="http://www.w3.org/2000/svg">
<path d="M8.50694 19.1786C6.98681 17.8107 5.91354 16.1893 5.32917 15C5.91354 13.8107 6.98681 12.1929 8.50694 10.8214C10.2104 9.28929 12.3837 8.14286 15 8.14286C17.6163 8.14286 19.7896 9.28929 21.4931 10.8214C23.0132 12.1893 24.0865 13.8107 24.6708 15C24.0865 16.1893 23.0132 17.8071 21.4931 19.1786C19.7896 20.7107 17.6163 21.8571 15 21.8571C12.3837 21.8571 10.2104 20.7107 8.50694 19.1786ZM15 23C21.05 23 24.8542 17.6679 26 15C24.8542 12.3321 21.05 7 15 7C8.95 7 5.14583 12.3321 4 15C5.14583 17.6679 8.95 23 15 23ZM11.3333 15C11.3333 14.0907 11.7196 13.2186 12.4073 12.5756C13.0949 11.9327 14.0275 11.5714 15 11.5714C15.9725 11.5714 16.9051 11.9327 17.5927 12.5756C18.2804 13.2186 18.6667 14.0907 18.6667 15C18.6667 15.9093 18.2804 16.7814 17.5927 17.4244C16.9051 18.0673 15.9725 18.4286 15 18.4286C14.0275 18.4286 13.0949 18.0673 12.4073 17.4244C11.7196 16.7814 11.3333 15.9093 11.3333 15ZM19.8889 15C19.8889 13.7876 19.3738 12.6248 18.457 11.7675C17.5401 10.9102 16.2966 10.4286 15 10.4286C13.7034 10.4286 12.4599 10.9102 11.543 11.7675C10.6262 12.6248 10.1111 13.7876 10.1111 15C10.1111 16.2124 10.6262 17.3752 11.543 18.2325C12.4599 19.0898 13.7034 19.5714 15 19.5714C16.2966 19.5714 17.5401 19.0898 18.457 18.2325C19.3738 17.3752 19.8889 16.2124 19.8889 15Z" fill="black"/>
</svg>
