<svg width="30" height="30" viewBox="0 0 30 30" fill="none" xmlns="http://www.w3.org/2000/svg">
<g clip-path="url(#clip0_416_1406)">
<path d="M3.75 28.125H5.625V30H3.75C1.68164 30 0 28.3184 0 26.25V3.75C0 1.68164 1.68164 0 3.75 0H12.8965C13.6406 0 14.3555 0.298828 14.8828 0.826172L21.6738 7.61133C22.2012 8.13867 22.5 8.85352 22.5 9.59766V16.875H20.625V11.25H14.0625C12.5098 11.25 11.25 9.99023 11.25 8.4375V1.875H3.75C2.71289 1.875 1.875 2.71289 1.875 3.75V26.25C1.875 27.2871 2.71289 28.125 3.75 28.125ZM20.5957 9.375C20.5547 9.21094 20.4727 9.05859 20.3496 8.94141L13.5586 2.15039C13.4355 2.02734 13.2891 1.94531 13.125 1.9043V8.4375C13.125 8.95312 13.5469 9.375 14.0625 9.375H20.5957ZM10.3125 20.625H12.1875C13.998 20.625 15.4688 22.0957 15.4688 23.9062C15.4688 25.7168 13.998 27.1875 12.1875 27.1875H11.25V29.0625C11.25 29.5781 10.8281 30 10.3125 30C9.79688 30 9.375 29.5781 9.375 29.0625V26.25V21.5625C9.375 21.0469 9.79688 20.625 10.3125 20.625ZM12.1875 25.3125C12.9668 25.3125 13.5938 24.6855 13.5938 23.9062C13.5938 23.127 12.9668 22.5 12.1875 22.5H11.25V25.3125H12.1875ZM17.8125 20.625H19.6875C21.2402 20.625 22.5 21.8848 22.5 23.4375V27.1875C22.5 28.7402 21.2402 30 19.6875 30H17.8125C17.2969 30 16.875 29.5781 16.875 29.0625V21.5625C16.875 21.0469 17.2969 20.625 17.8125 20.625ZM19.6875 28.125C20.2031 28.125 20.625 27.7031 20.625 27.1875V23.4375C20.625 22.9219 20.2031 22.5 19.6875 22.5H18.75V28.125H19.6875ZM24.375 21.5625C24.375 21.0469 24.7969 20.625 25.3125 20.625H28.125C28.6406 20.625 29.0625 21.0469 29.0625 21.5625C29.0625 22.0781 28.6406 22.5 28.125 22.5H26.25V24.375H28.125C28.6406 24.375 29.0625 24.7969 29.0625 25.3125C29.0625 25.8281 28.6406 26.25 28.125 26.25H26.25V29.0625C26.25 29.5781 25.8281 30 25.3125 30C24.7969 30 24.375 29.5781 24.375 29.0625V25.3125V21.5625Z" fill="#ABABAB"/>
</g>
<defs>
<clipPath id="clip0_416_1406">
<rect width="30" height="30" fill="white"/>
</clipPath>
</defs>
</svg>
