<svg width="28" height="28" viewBox="0 0 28 28" fill="none" xmlns="http://www.w3.org/2000/svg">
<g id="gala:file-document">
<g id="Group">
<path id="Vector" d="M3.5 5.25V22.7416" stroke="#ABABAB" stroke-width="1.5" stroke-linecap="round"/>
<path id="Vector_2" d="M24.5 10.5V22.75" stroke="#ABABAB" stroke-width="1.5" stroke-linecap="round" stroke-linejoin="round"/>
<path id="Vector_3" d="M7 1.75H15.75" stroke="#ABABAB" stroke-width="1.5" stroke-linecap="round" stroke-linejoin="round"/>
<path id="Vector_4" d="M7 26.25H21" stroke="#ABABAB" stroke-width="1.5" stroke-linecap="round"/>
<path id="Vector_5" d="M24.5 22.75C24.5096 24.498 22.75 26.25 21 26.25" stroke="#ABABAB" stroke-width="1.5" stroke-linecap="round" stroke-linejoin="round"/>
<path id="Vector_6" d="M3.5 22.75C3.5 24.5 5.25 26.25 7 26.25" stroke="#ABABAB" stroke-width="1.5" stroke-linecap="round" stroke-linejoin="round"/>
<path id="Vector_7" d="M3.5 5.24805C3.5 3.50059 5.25 1.78956 7 1.75059" stroke="#ABABAB" stroke-width="1.5" stroke-linecap="round" stroke-linejoin="round"/>
<path id="Vector_8" d="M24.4904 10.5079L15.75 1.75" stroke="#ABABAB" stroke-width="1.5" stroke-linecap="round" stroke-linejoin="round"/>
<path id="Vector_9" d="M15.75 7C15.7554 8.74048 17.5071 10.5 19.25 10.5" stroke="#ABABAB" stroke-width="1.5" stroke-linecap="round" stroke-linejoin="round"/>
<path id="Vector_10" d="M15.75 7V1.75" stroke="#ABABAB" stroke-width="1.5" stroke-linecap="round" stroke-linejoin="round"/>
<path id="Vector_11" d="M19.25 10.5H24.5" stroke="#ABABAB" stroke-width="1.5" stroke-linecap="round" stroke-linejoin="round"/>
<path id="Vector_12" d="M7 22.75H12.25" stroke="#ABABAB" stroke-width="1.5" stroke-linecap="round" stroke-linejoin="round"/>
<path id="Vector_13" d="M7 19.25H15.75" stroke="#ABABAB" stroke-width="1.5" stroke-linecap="round" stroke-linejoin="round"/>
<path id="Vector_14" d="M7 15.75H12.25" stroke="#ABABAB" stroke-width="1.5" stroke-linecap="round" stroke-linejoin="round"/>
</g>
</g>
</svg>
