<svg width="52" height="45" viewBox="0 0 52 45" fill="none" xmlns="http://www.w3.org/2000/svg">
<g clip-path="url(#clip0_1658_4106)">
<path d="M23.3534 31.7812C21.9125 32.3127 20.3582 32.6036 18.7381 32.6036C11.297 32.6036 5.24194 26.4794 5.24194 18.9521C5.24194 11.426 11.297 5.30181 18.7381 5.30181C22.6427 5.30181 26.1646 6.98852 28.6319 9.67764C29.8924 8.4385 31.337 7.38924 32.9206 6.57794C29.4816 2.55226 24.3994 0 18.7381 0C8.4066 0 0 8.50262 0 18.9521C0 29.4028 8.4066 37.9042 18.7381 37.9042C20.3302 37.9042 21.8759 37.702 23.3534 37.3222V31.7812Z" fill="#FF6600"/>
<path d="M29.01 20.5488H29.0344C29.377 15.6575 33.4218 11.7835 38.3431 11.7835C43.49 11.7835 47.6762 16.0188 47.6762 21.2232C47.6762 26.4276 43.4887 30.6629 38.3431 30.6629C35.1053 30.6629 32.2478 28.9848 30.5741 26.4449V32.5765C32.7806 34.1263 35.4588 35.035 38.3431 35.035C45.8732 35.035 52.0002 28.8381 52.0002 21.222C52.0002 13.6059 45.8732 7.41016 38.3431 7.41016C30.813 7.41016 24.686 13.6071 24.686 21.2232C24.686 21.2984 24.6873 21.3736 24.6885 21.4488C24.6885 26.6939 24.6885 31.9403 24.6885 37.1853C24.6885 39.7894 24.6885 42.3947 24.6885 44.9987C26.127 44.1702 27.5642 43.3404 29.0027 42.5118C29.0051 35.1916 29.0076 27.8702 29.01 20.5488Z" fill="#FF6600"/>
</g>
<defs>
<clipPath id="clip0_1658_4106">
<rect width="52" height="45" fill="white"/>
</clipPath>
</defs>
</svg>
