<svg width="16" height="17" viewBox="0 0 16 17" fill="none" xmlns="http://www.w3.org/2000/svg">
<g clip-path="url(#clip0_416_1807)">
<path d="M11.5 7C11.5 5.67392 10.9732 4.40215 10.0355 3.46447C9.09785 2.52678 7.82608 2 6.5 2C5.17392 2 3.90215 2.52678 2.96447 3.46447C2.02678 4.40215 1.5 5.67392 1.5 7C1.5 8.32608 2.02678 9.59785 2.96447 10.5355C3.90215 11.4732 5.17392 12 6.5 12C7.82608 12 9.09785 11.4732 10.0355 10.5355C10.9732 9.59785 11.5 8.32608 11.5 7ZM10.5344 12.0969C9.42813 12.975 8.025 13.5 6.5 13.5C2.90937 13.5 0 10.5906 0 7C0 3.40937 2.90937 0.5 6.5 0.5C10.0906 0.5 13 3.40937 13 7C13 8.525 12.475 9.92813 11.5969 11.0344L15.7812 15.2188C16.075 15.5125 16.075 15.9875 15.7812 16.2781C15.4875 16.5688 15.0125 16.5719 14.7219 16.2781L10.5344 12.0969Z" fill="#ABABAB"/>
</g>
<defs>
<clipPath id="clip0_416_1807">
<rect width="16" height="16" fill="white" transform="translate(0 0.5)"/>
</clipPath>
</defs>
</svg>
