<svg width="25" height="25" viewBox="0 0 25 25" fill="none" xmlns="http://www.w3.org/2000/svg">
<path d="M11.3 16.4L15.97 12.9C16.24 12.7 16.24 12.3 15.97 12.1L11.3 8.6C11.2257 8.54429 11.1374 8.51036 11.0449 8.50202C10.9524 8.49368 10.8594 8.51126 10.7764 8.55279C10.6933 8.59431 10.6235 8.65815 10.5747 8.73713C10.5259 8.81612 10.5 8.90714 10.5 9V16C10.5 16.41 10.97 16.65 11.3 16.4ZM12.5 2.5C6.98 2.5 2.5 6.98 2.5 12.5C2.5 18.02 6.98 22.5 12.5 22.5C18.02 22.5 22.5 18.02 22.5 12.5C22.5 6.98 18.02 2.5 12.5 2.5ZM12.5 20.5C8.09 20.5 4.5 16.91 4.5 12.5C4.5 8.09 8.09 4.5 12.5 4.5C16.91 4.5 20.5 8.09 20.5 12.5C20.5 16.91 16.91 20.5 12.5 20.5Z" fill="white"/>
</svg>
