<svg width="20" height="20" viewBox="0 0 20 20" fill="none" xmlns="http://www.w3.org/2000/svg">
<path d="M3.75 6.25H2.5V2.5C2.5 1.12109 3.62109 0 5 0H13.9648C14.6289 0 15.2656 0.261719 15.7344 0.730469L16.7695 1.76562C17.2383 2.23438 17.5 2.87109 17.5 3.53516V6.25H16.25V3.53516C16.25 3.20312 16.1172 2.88672 15.8828 2.65234L14.8477 1.61719C14.6133 1.38281 14.2969 1.25 13.9648 1.25H5C4.30859 1.25 3.75 1.80859 3.75 2.5V6.25ZM17.5 8.75H2.5C1.80859 8.75 1.25 9.30859 1.25 10V15H2.5V13.75C2.5 13.0586 3.05859 12.5 3.75 12.5H16.25C16.9414 12.5 17.5 13.0586 17.5 13.75V15H18.75V10C18.75 9.30859 18.1914 8.75 17.5 8.75ZM17.5 16.25V18.75C17.5 19.4414 16.9414 20 16.25 20H3.75C3.05859 20 2.5 19.4414 2.5 18.75V16.25H1.25C0.558594 16.25 0 15.6914 0 15V10C0 8.62109 1.12109 7.5 2.5 7.5H17.5C18.8789 7.5 20 8.62109 20 10V15C20 15.6914 19.4414 16.25 18.75 16.25H17.5ZM3.75 13.75V18.75H16.25V13.75H3.75ZM16.875 9.6875C17.1236 9.6875 17.3621 9.78627 17.5379 9.96209C17.7137 10.1379 17.8125 10.3764 17.8125 10.625C17.8125 10.8736 17.7137 11.1121 17.5379 11.2879C17.3621 11.4637 17.1236 11.5625 16.875 11.5625C16.6264 11.5625 16.3879 11.4637 16.2121 11.2879C16.0363 11.1121 15.9375 10.8736 15.9375 10.625C15.9375 10.3764 16.0363 10.1379 16.2121 9.96209C16.3879 9.78627 16.6264 9.6875 16.875 9.6875Z" fill="#ABABAB"/>
</svg>
