<svg width="199" height="126" viewBox="0 0 199 126" fill="none" xmlns="http://www.w3.org/2000/svg">
<g clip-path="url(#clip0_3706_7283)">
<path d="M92.9923 94.9982L68.4978 70.6139L76.7303 62.5998L91.0212 76.8597L120.762 31L130.502 37.1317L92.9923 94.9982Z" fill="#229427"/>
<path d="M99.5145 126C64.2076 126 35.4808 97.737 35.4808 63C35.4808 28.263 64.1786 0 99.5145 0C134.85 0 163.548 28.263 163.548 63C163.548 97.737 134.821 126 99.5145 126ZM99.5145 8.55591C68.9905 8.55591 44.1771 32.9688 44.1771 63C44.1771 93.0312 68.9905 117.444 99.5145 117.444C130.038 117.444 154.852 93.0312 154.852 63C154.852 32.9688 130.009 8.55591 99.5145 8.55591Z" fill="#229427"/>
<path d="M19.0159 61.5781H0V64.4301H19.0159V61.5781Z" fill="#229427"/>
<path d="M12.4166 21.9072L10.3669 23.9238L23.813 37.1529L25.8627 35.1363L12.4166 21.9072Z" fill="#229427"/>
<path d="M23.8201 88.2416L10.374 101.471L12.4237 103.487L25.8699 90.2583L23.8201 88.2416Z" fill="#229427"/>
<path d="M199.001 61.5742H179.985V64.4262H199.001V61.5742Z" fill="#229427"/>
<path d="M186.572 21.892L173.126 35.1211L175.176 37.1377L188.622 23.9086L186.572 21.892Z" fill="#229427"/>
<path d="M175.18 88.2158L173.13 90.2324L186.576 103.461L188.626 101.445L175.18 88.2158Z" fill="#229427"/>
</g>
<defs>
<clipPath id="clip0_3706_7283">
<rect width="199" height="126" fill="white"/>
</clipPath>
</defs>
</svg>
