<svg width="21" height="21" viewBox="0 0 21 21" fill="none" xmlns="http://www.w3.org/2000/svg">
<path d="M2.625 2.625C1.89902 2.625 1.3125 3.21152 1.3125 3.9375V6.5625H19.6875V3.9375C19.6875 3.21152 19.101 2.625 18.375 2.625H2.625ZM1.3125 7.875V12.4688H9.84375V7.875H1.3125ZM11.1562 7.875V12.4688H19.6875V7.875H11.1562ZM9.84375 13.7812H1.3125V17.0625C1.3125 17.7885 1.89902 18.375 2.625 18.375H9.84375V13.7812ZM11.1562 18.375H18.375C19.101 18.375 19.6875 17.7885 19.6875 17.0625V13.7812H11.1562V18.375ZM0 3.9375C0 2.48965 1.17715 1.3125 2.625 1.3125H18.375C19.8229 1.3125 21 2.48965 21 3.9375V17.0625C21 18.5104 19.8229 19.6875 18.375 19.6875H2.625C1.17715 19.6875 0 18.5104 0 17.0625V3.9375Z" fill="white"/>
</svg>
