<svg width="157" height="100" viewBox="0 0 157 100" fill="none" xmlns="http://www.w3.org/2000/svg">
<g id="Frame" clip-path="url(#clip0_1658_5013)">
<g id="Group">
<path id="Vector" d="M73.3659 75.3957L54.041 56.0431L60.536 49.6827L71.8107 61.0001L95.275 24.6035L102.959 29.47L73.3659 75.3957Z" fill="#229427"/>
<path id="Vector_2" d="M78.5114 100C50.6562 100 27.9924 77.569 27.9924 50C27.9924 22.431 50.6334 0 78.5114 0C106.39 0 129.03 22.431 129.03 50C129.03 77.569 106.367 100 78.5114 100ZM78.5114 6.7904C54.4297 6.7904 34.8533 26.1657 34.8533 50C34.8533 73.8343 54.4297 93.2096 78.5114 93.2096C102.593 93.2096 122.17 73.8343 122.17 50C122.17 26.1657 102.57 6.7904 78.5114 6.7904Z" fill="#229427"/>
<g id="Group_2">
<g id="Group_3">
<path id="Vector_3" d="M15.0025 48.8691H0V51.1326H15.0025V48.8691Z" fill="#229427"/>
<path id="Vector_4" d="M9.79607 17.3829L8.17896 18.9834L18.7872 29.4827L20.4043 27.8822L9.79607 17.3829Z" fill="#229427"/>
<path id="Vector_5" d="M18.7928 70.03L8.18457 80.5293L9.80168 82.1298L20.4099 71.6305L18.7928 70.03Z" fill="#229427"/>
</g>
<g id="Group_4">
<path id="Vector_6" d="M157 48.8682H141.998V51.1316H157V48.8682Z" fill="#229427"/>
<path id="Vector_7" d="M147.195 17.3748L136.587 27.874L138.204 29.4745L148.812 18.9753L147.195 17.3748Z" fill="#229427"/>
<path id="Vector_8" d="M138.207 70.0118L136.59 71.6123L147.198 82.1116L148.815 80.5111L138.207 70.0118Z" fill="#229427"/>
</g>
</g>
</g>
</g>
<defs>
<clipPath id="clip0_1658_5013">
<rect width="157" height="100" fill="white"/>
</clipPath>
</defs>
</svg>
