<svg width="25" height="25" viewBox="0 0 25 25" fill="none" xmlns="http://www.w3.org/2000/svg">
<path d="M3.125 4.6875C2.26074 4.6875 1.5625 5.38574 1.5625 6.25V8.19824L11.1133 15.2002C11.9385 15.8057 13.0615 15.8057 13.8867 15.2002L23.4375 8.19824V6.25C23.4375 5.38574 22.7393 4.6875 21.875 4.6875H3.125ZM1.5625 10.1367V18.75C1.5625 19.6143 2.26074 20.3125 3.125 20.3125H21.875C22.7393 20.3125 23.4375 19.6143 23.4375 18.75V10.1367L14.8096 16.46C13.4326 17.4658 11.5625 17.4658 10.1904 16.46L1.5625 10.1367ZM0 6.25C0 4.52637 1.40137 3.125 3.125 3.125H21.875C23.5986 3.125 25 4.52637 25 6.25V18.75C25 20.4736 23.5986 21.875 21.875 21.875H3.125C1.40137 21.875 0 20.4736 0 18.75V6.25Z" fill="#FF6600"/>
</svg>
