<svg width="234" height="51" viewBox="0 0 234 51" fill="none" xmlns="http://www.w3.org/2000/svg">
<g clip-path="url(#clip0_1658_4142)">
<path d="M23.3534 31.7812C21.9125 32.3127 20.3582 32.6036 18.7381 32.6036C11.297 32.6036 5.24194 26.4794 5.24194 18.9521C5.24194 11.426 11.297 5.30181 18.7381 5.30181C22.6427 5.30181 26.1646 6.98852 28.6319 9.67764C29.8924 8.4385 31.337 7.38924 32.9206 6.57794C29.4816 2.55226 24.3994 0 18.7381 0C8.4066 0 0 8.50262 0 18.9521C0 29.4028 8.4066 37.9042 18.7381 37.9042C20.3302 37.9042 21.8759 37.702 23.3534 37.3222V31.7812Z" fill="white"/>
<path d="M29.01 20.5488H29.0344C29.377 15.6575 33.4218 11.7835 38.3431 11.7835C43.49 11.7835 47.6762 16.0188 47.6762 21.2232C47.6762 26.4276 43.4887 30.6629 38.3431 30.6629C35.1053 30.6629 32.2478 28.9848 30.5741 26.4449V32.5765C32.7806 34.1263 35.4588 35.035 38.3431 35.035C45.8732 35.035 52.0002 28.8381 52.0002 21.222C52.0002 13.6059 45.8732 7.41016 38.3431 7.41016C30.813 7.41016 24.686 13.6071 24.686 21.2232C24.686 21.2984 24.6873 21.3736 24.6885 21.4488C24.6885 26.6939 24.6885 31.9403 24.6885 37.1853C24.6885 39.7894 24.6885 42.3947 24.6885 44.9987C26.127 44.1702 27.5642 43.3404 29.0027 42.5118C29.0051 35.1916 29.0076 27.8702 29.01 20.5488Z" fill="white"/>
</g>
<path d="M77.405 23.356C78.9865 23.356 80.356 23.141 81.5132 22.7109C82.6834 22.2809 83.5127 21.8635 84.0013 21.4587L85.4479 24.2478C84.8693 24.7537 83.8599 25.266 82.4198 25.7846C80.9925 26.3032 79.2759 26.5625 77.2699 26.5625C75.3926 26.5625 73.6503 26.2336 72.043 25.5759C70.4357 24.9182 69.0277 24.0011 67.819 22.8248C66.6231 21.6484 65.6845 20.276 65.003 18.7076C64.3343 17.1391 64 15.4442 64 13.6228C64 11.8013 64.3343 10.1001 65.003 8.51897C65.6716 6.93787 66.6038 5.55915 67.7997 4.38281C69.0084 3.19382 70.4164 2.27046 72.0237 1.61272C73.6439 0.942336 75.3926 0.607142 77.2699 0.607142C79.2759 0.607142 80.9925 0.866442 82.4198 1.38504C83.8599 1.90365 84.8693 2.41592 85.4479 2.92188L84.0013 5.71094C83.5127 5.29353 82.6834 4.87612 81.5132 4.45871C80.356 4.02865 78.9865 3.81362 77.405 3.81362C75.9648 3.81362 74.6468 4.05394 73.451 4.5346C72.2551 5.01525 71.2136 5.69829 70.3264 6.58371C69.452 7.45647 68.7705 8.48735 68.2819 9.67634C67.8061 10.8653 67.5682 12.1618 67.5682 13.5658C67.5682 14.9825 67.8061 16.2917 68.2819 17.4933C68.7705 18.6823 69.452 19.7195 70.3264 20.6049C71.2136 21.4777 72.2551 22.1544 73.451 22.635C74.6468 23.1157 75.9648 23.356 77.405 23.356Z" fill="white"/>
<path d="M92.8095 26.1071H89.4342V0H92.8095V26.1071Z" fill="white"/>
<path d="M98.0103 26.1071V10.5301H101.366V26.1071H98.0103ZM99.7269 5.19866C99.1225 5.19866 98.6017 4.98996 98.1646 4.57254C97.7402 4.14249 97.5281 3.63021 97.5281 3.03571C97.5281 2.44122 97.7402 1.92894 98.1646 1.49888C98.6017 1.06882 99.1225 0.853794 99.7269 0.853794C100.125 0.853794 100.492 0.954984 100.826 1.15737C101.173 1.35975 101.45 1.62537 101.656 1.95424C101.861 2.27046 101.964 2.63095 101.964 3.03571C101.964 3.63021 101.746 4.14249 101.308 4.57254C100.871 4.98996 100.344 5.19866 99.7269 5.19866Z" fill="white"/>
<path d="M108.599 18.9922C108.612 19.9282 108.817 20.782 109.216 21.5536C109.615 22.3251 110.206 22.9386 110.991 23.394C111.788 23.8493 112.765 24.077 113.922 24.077C114.9 24.077 115.729 23.9379 116.41 23.6596C117.105 23.3687 117.671 23.0272 118.108 22.635C118.545 22.2303 118.86 21.8698 119.053 21.5536L120.692 23.5458C120.268 24.1529 119.747 24.6842 119.13 25.1395C118.526 25.5949 117.786 25.9427 116.912 26.183C116.038 26.436 114.97 26.5625 113.71 26.5625C112.013 26.5625 110.541 26.2083 109.293 25.5C108.059 24.779 107.107 23.7861 106.439 22.5212C105.77 21.2437 105.436 19.7827 105.436 18.1384C105.436 16.6205 105.751 15.2545 106.381 14.0402C107.011 12.8132 107.924 11.8456 109.12 11.1373C110.328 10.4289 111.781 10.0748 113.479 10.0748C115.035 10.0748 116.385 10.3973 117.529 11.0424C118.686 11.6749 119.58 12.5729 120.21 13.7366C120.853 14.9003 121.174 16.2917 121.174 17.9107C121.174 18.0119 121.168 18.1953 121.155 18.4609C121.142 18.7139 121.129 18.891 121.117 18.9922H108.599ZM117.973 16.5067C117.96 15.9881 117.806 15.4189 117.51 14.7991C117.227 14.1793 116.764 13.6481 116.121 13.2054C115.478 12.7626 114.61 12.5413 113.517 12.5413C112.386 12.5413 111.473 12.7563 110.778 13.1864C110.097 13.6164 109.595 14.1414 109.274 14.7612C108.953 15.3683 108.766 15.9501 108.715 16.5067H117.973Z" fill="white"/>
<path d="M133.733 10.0748C134.775 10.0748 135.784 10.2898 136.761 10.7199C137.751 11.1499 138.562 11.833 139.192 12.769C139.835 13.6923 140.156 14.9003 140.156 16.3929V26.1071H136.761V17.0379C136.761 15.4948 136.395 14.3754 135.662 13.6797C134.929 12.9714 133.984 12.6172 132.827 12.6172C132.068 12.6172 131.335 12.8322 130.628 13.2623C129.934 13.6797 129.361 14.2615 128.911 15.0078C128.461 15.7414 128.236 16.5763 128.236 17.5123V26.1071H124.88V10.5301H128.236V13.3002C128.352 12.8702 128.667 12.4022 129.181 11.8962C129.696 11.3903 130.351 10.9602 131.149 10.606C131.946 10.2519 132.807 10.0748 133.733 10.0748Z" fill="white"/>
<path d="M143.194 10.5301H146.3V4.13616H149.636V10.5301H153.706V13.3571H149.636V21.0603C149.636 21.971 149.797 22.6414 150.119 23.0714C150.453 23.5015 150.897 23.7165 151.45 23.7165C151.938 23.7165 152.317 23.628 152.588 23.4509C152.858 23.2738 153.018 23.1536 153.07 23.0904L154.401 25.519C154.323 25.5822 154.118 25.7024 153.783 25.8795C153.449 26.0565 153.018 26.2147 152.491 26.3538C151.964 26.4929 151.347 26.5625 150.639 26.5625C149.405 26.5625 148.37 26.1957 147.534 25.4621C146.711 24.7158 146.3 23.5394 146.3 21.933V13.3571H143.194V10.5301Z" fill="white"/>
<path d="M170.316 34H166.979V10.5301H170.374V13.452C170.49 13.0599 170.811 12.5982 171.338 12.067C171.865 11.5357 172.573 11.074 173.46 10.6819C174.36 10.2772 175.389 10.0748 176.546 10.0748C178.012 10.0748 179.31 10.4226 180.442 11.1183C181.586 11.8013 182.48 12.7626 183.123 14.0022C183.779 15.2292 184.107 16.6711 184.107 18.3281C184.107 19.9851 183.772 21.4334 183.104 22.673C182.435 23.8999 181.522 24.8549 180.365 25.5379C179.22 26.221 177.909 26.5625 176.43 26.5625C175.234 26.5625 174.186 26.3411 173.286 25.8984C172.399 25.4557 171.698 24.9561 171.184 24.3996C170.682 23.843 170.393 23.4003 170.316 23.0714V34ZM180.789 18.3281C180.789 17.2024 180.551 16.2284 180.076 15.4062C179.613 14.5841 178.995 13.9453 178.224 13.49C177.452 13.0346 176.617 12.8069 175.716 12.8069C174.726 12.8069 173.826 13.0409 173.016 13.5089C172.206 13.9643 171.563 14.6094 171.087 15.4442C170.612 16.2664 170.374 17.2277 170.374 18.3281C170.374 19.4286 170.612 20.3962 171.087 21.231C171.563 22.0532 172.206 22.692 173.016 23.1473C173.826 23.6027 174.726 23.8304 175.716 23.8304C176.617 23.8304 177.452 23.609 178.224 23.1663C178.995 22.7109 179.613 22.0722 180.076 21.25C180.551 20.4278 180.789 19.4539 180.789 18.3281Z" fill="white"/>
<path d="M187.969 26.1071V10.5301H191.325V26.1071H187.969ZM189.686 5.19866C189.082 5.19866 188.561 4.98996 188.124 4.57254C187.699 4.14249 187.487 3.63021 187.487 3.03571C187.487 2.44122 187.699 1.92894 188.124 1.49888C188.561 1.06882 189.082 0.853794 189.686 0.853794C190.085 0.853794 190.451 0.954984 190.785 1.15737C191.132 1.35975 191.409 1.62537 191.615 1.95424C191.82 2.27046 191.923 2.63095 191.923 3.03571C191.923 3.63021 191.705 4.14249 191.267 4.57254C190.83 4.98996 190.303 5.19866 189.686 5.19866Z" fill="white"/>
<path d="M199.947 26.1071H196.571V0H199.947V26.1071Z" fill="white"/>
<path d="M212.11 26.5625C210.477 26.5625 209.024 26.202 207.751 25.481C206.491 24.76 205.501 23.7861 204.781 22.5592C204.061 21.3196 203.701 19.9219 203.701 18.3661C203.701 16.8103 204.061 15.4062 204.781 14.154C205.501 12.9018 206.491 11.9089 207.751 11.1752C209.024 10.4416 210.477 10.0748 212.11 10.0748C213.73 10.0748 215.164 10.4416 216.411 11.1752C217.672 11.9089 218.655 12.9018 219.362 14.154C220.07 15.4062 220.423 16.8103 220.423 18.3661C220.423 19.9219 220.07 21.3196 219.362 22.5592C218.655 23.7861 217.672 24.76 216.411 25.481C215.164 26.202 213.73 26.5625 212.11 26.5625ZM212.11 23.7355C213.139 23.7355 214.033 23.5015 214.791 23.0335C215.563 22.5655 216.161 21.9267 216.585 21.1172C217.009 20.295 217.222 19.3717 217.222 18.3471C217.222 17.3225 217.009 16.3992 216.585 15.577C216.161 14.7548 215.563 14.1034 214.791 13.6228C214.033 13.1421 213.139 12.9018 212.11 12.9018C211.069 12.9018 210.162 13.1421 209.391 13.6228C208.619 14.1034 208.015 14.7548 207.578 15.577C207.153 16.3992 206.941 17.3225 206.941 18.3471C206.941 19.3717 207.153 20.295 207.578 21.1172C208.015 21.9267 208.619 22.5655 209.391 23.0335C210.162 23.5015 211.069 23.7355 212.11 23.7355Z" fill="white"/>
<path d="M222.794 10.5301H225.899V4.13616H229.236V10.5301H233.306V13.3571H229.236V21.0603C229.236 21.971 229.397 22.6414 229.718 23.0714C230.052 23.5015 230.496 23.7165 231.049 23.7165C231.538 23.7165 231.917 23.628 232.187 23.4509C232.457 23.2738 232.618 23.1536 232.669 23.0904L234 25.519C233.923 25.5822 233.717 25.7024 233.383 25.8795C233.048 26.0565 232.618 26.2147 232.091 26.3538C231.563 26.4929 230.946 26.5625 230.239 26.5625C229.004 26.5625 227.969 26.1957 227.134 25.4621C226.311 24.7158 225.899 23.5394 225.899 21.933V13.3571H222.794V10.5301Z" fill="white"/>
<path d="M66.7227 44H66.0586V38.8789H64.25V38.2891H68.5312V38.8789H66.7227V44ZM73.7305 44H73.0664V41.3125H70.0586V44H69.3945V38.2891H70.0586V40.7188H73.0664V38.2891H73.7305V44ZM78.4844 44H75.3008V38.2891H78.4844V38.8789H75.9648V40.7188H78.332V41.3047H75.9648V43.4062H78.4844V44ZM86.1445 38.2891V41.9844C86.1445 42.6354 85.9479 43.1471 85.5547 43.5195C85.1615 43.8919 84.6211 44.0781 83.9336 44.0781C83.2461 44.0781 82.7135 43.8906 82.3359 43.5156C81.9609 43.1406 81.7734 42.625 81.7734 41.9688V38.2891H82.4375V42.0156C82.4375 42.4922 82.5677 42.8581 82.8281 43.1133C83.0885 43.3685 83.4714 43.4961 83.9766 43.4961C84.4583 43.4961 84.8294 43.3685 85.0898 43.1133C85.3503 42.8555 85.4805 42.487 85.4805 42.0078V38.2891H86.1445ZM87.6602 44V38.2891H88.3242V43.3984H90.8438V44H87.6602ZM93.5742 44H92.9102V38.8789H91.1016V38.2891H95.3828V38.8789H93.5742V44ZM96.2461 44V38.2891H96.9102V44H96.2461ZM101.008 44L99.0703 38.9375H99.0391C99.0755 39.3385 99.0938 39.8151 99.0938 40.3672V44H98.4805V38.2891H99.4805L101.289 43H101.32L103.145 38.2891H104.137V44H103.473V40.3203C103.473 39.8984 103.491 39.4401 103.527 38.9453H103.496L101.543 44H101.008ZM109.297 44L108.586 42.1836H106.297L105.594 44H104.922L107.18 38.2656H107.738L109.984 44H109.297ZM108.379 41.5859L107.715 39.8164C107.629 39.5924 107.54 39.3177 107.449 38.9922C107.392 39.2422 107.31 39.5169 107.203 39.8164L106.531 41.5859H108.379ZM112.527 44H111.863V38.8789H110.055V38.2891H114.336V38.8789H112.527V44ZM118.383 44H115.199V38.2891H118.383V38.8789H115.863V40.7188H118.23V41.3047H115.863V43.4062H118.383V44ZM123.488 44H122.824V38.8789H121.016V38.2891H125.297V38.8789H123.488V44ZM131.117 41.1367C131.117 42.0508 130.885 42.7695 130.422 43.293C129.961 43.8164 129.319 44.0781 128.496 44.0781C127.655 44.0781 127.005 43.8216 126.547 43.3086C126.091 42.793 125.863 42.0664 125.863 41.1289C125.863 40.1992 126.092 39.4792 126.551 38.9688C127.009 38.4557 127.66 38.1992 128.504 38.1992C129.324 38.1992 129.965 38.4596 130.426 38.9805C130.887 39.5013 131.117 40.2201 131.117 41.1367ZM126.566 41.1367C126.566 41.9102 126.73 42.4974 127.059 42.8984C127.389 43.2969 127.868 43.4961 128.496 43.4961C129.129 43.4961 129.607 43.2969 129.93 42.8984C130.253 42.5 130.414 41.9128 130.414 41.1367C130.414 40.3685 130.253 39.7865 129.93 39.3906C129.609 38.9922 129.134 38.793 128.504 38.793C127.871 38.793 127.389 38.9935 127.059 39.3945C126.73 39.793 126.566 40.3737 126.566 41.1367ZM137.352 41.1367C137.352 42.0508 137.12 42.7695 136.656 43.293C136.195 43.8164 135.553 44.0781 134.73 44.0781C133.889 44.0781 133.24 43.8216 132.781 43.3086C132.326 42.793 132.098 42.0664 132.098 41.1289C132.098 40.1992 132.327 39.4792 132.785 38.9688C133.243 38.4557 133.895 38.1992 134.738 38.1992C135.559 38.1992 136.199 38.4596 136.66 38.9805C137.121 39.5013 137.352 40.2201 137.352 41.1367ZM132.801 41.1367C132.801 41.9102 132.965 42.4974 133.293 42.8984C133.624 43.2969 134.103 43.4961 134.73 43.4961C135.363 43.4961 135.841 43.2969 136.164 42.8984C136.487 42.5 136.648 41.9128 136.648 41.1367C136.648 40.3685 136.487 39.7865 136.164 39.3906C135.844 38.9922 135.368 38.793 134.738 38.793C134.105 38.793 133.624 38.9935 133.293 39.3945C132.965 39.793 132.801 40.3737 132.801 41.1367ZM138.629 44V38.2891H139.293V43.3984H141.812V44H138.629ZM145.527 44H144.863V38.2891H148.047V38.8789H145.527V40.9688H147.895V41.5586H145.527V44ZM153.953 41.1367C153.953 42.0508 153.721 42.7695 153.258 43.293C152.797 43.8164 152.155 44.0781 151.332 44.0781C150.491 44.0781 149.841 43.8216 149.383 43.3086C148.927 42.793 148.699 42.0664 148.699 41.1289C148.699 40.1992 148.928 39.4792 149.387 38.9688C149.845 38.4557 150.496 38.1992 151.34 38.1992C152.16 38.1992 152.801 38.4596 153.262 38.9805C153.723 39.5013 153.953 40.2201 153.953 41.1367ZM149.402 41.1367C149.402 41.9102 149.566 42.4974 149.895 42.8984C150.225 43.2969 150.704 43.4961 151.332 43.4961C151.965 43.4961 152.443 43.2969 152.766 42.8984C153.089 42.5 153.25 41.9128 153.25 41.1367C153.25 40.3685 153.089 39.7865 152.766 39.3906C152.445 38.9922 151.97 38.793 151.34 38.793C150.707 38.793 150.225 38.9935 149.895 39.3945C149.566 39.793 149.402 40.3737 149.402 41.1367ZM155.895 41.625V44H155.23V38.2891H156.797C157.497 38.2891 158.014 38.4232 158.348 38.6914C158.684 38.9596 158.852 39.3633 158.852 39.9023C158.852 40.6576 158.469 41.168 157.703 41.4336L159.254 44H158.469L157.086 41.625H155.895ZM155.895 41.0547H156.805C157.273 41.0547 157.617 40.9622 157.836 40.7773C158.055 40.5898 158.164 40.3099 158.164 39.9375C158.164 39.5599 158.052 39.2878 157.828 39.1211C157.607 38.9544 157.25 38.8711 156.758 38.8711H155.895V41.0547ZM162.254 38.2891H163.867C164.625 38.2891 165.173 38.4023 165.512 38.6289C165.85 38.8555 166.02 39.2135 166.02 39.7031C166.02 40.0417 165.924 40.3216 165.734 40.543C165.547 40.7617 165.272 40.9036 164.91 40.9688V41.0078C165.777 41.1562 166.211 41.612 166.211 42.375C166.211 42.8854 166.038 43.2839 165.691 43.5703C165.348 43.8568 164.866 44 164.246 44H162.254V38.2891ZM162.918 40.7344H164.012C164.48 40.7344 164.818 40.6615 165.023 40.5156C165.229 40.3672 165.332 40.1185 165.332 39.7695C165.332 39.4492 165.217 39.2188 164.988 39.0781C164.759 38.9349 164.395 38.8633 163.895 38.8633H162.918V40.7344ZM162.918 41.2969V43.4336H164.109C164.57 43.4336 164.917 43.3451 165.148 43.168C165.383 42.9883 165.5 42.7083 165.5 42.3281C165.5 41.974 165.38 41.7135 165.141 41.5469C164.904 41.3802 164.542 41.2969 164.055 41.2969H162.918ZM171.754 38.2891V41.9844C171.754 42.6354 171.557 43.1471 171.164 43.5195C170.771 43.8919 170.23 44.0781 169.543 44.0781C168.855 44.0781 168.323 43.8906 167.945 43.5156C167.57 43.1406 167.383 42.625 167.383 41.9688V38.2891H168.047V42.0156C168.047 42.4922 168.177 42.8581 168.438 43.1133C168.698 43.3685 169.081 43.4961 169.586 43.4961C170.068 43.4961 170.439 43.3685 170.699 43.1133C170.96 42.8555 171.09 42.487 171.09 42.0078V38.2891H171.754ZM176.492 42.4805C176.492 42.9831 176.31 43.375 175.945 43.6562C175.581 43.9375 175.086 44.0781 174.461 44.0781C173.784 44.0781 173.263 43.9909 172.898 43.8164V43.1758C173.133 43.2747 173.388 43.3529 173.664 43.4102C173.94 43.4674 174.214 43.4961 174.484 43.4961C174.927 43.4961 175.26 43.4128 175.484 43.2461C175.708 43.0768 175.82 42.8424 175.82 42.543C175.82 42.3451 175.78 42.1836 175.699 42.0586C175.621 41.931 175.488 41.8138 175.301 41.707C175.116 41.6003 174.833 41.4792 174.453 41.3438C173.922 41.1536 173.542 40.9284 173.312 40.668C173.086 40.4076 172.973 40.0677 172.973 39.6484C172.973 39.2083 173.138 38.8581 173.469 38.5977C173.799 38.3372 174.237 38.207 174.781 38.207C175.349 38.207 175.871 38.3112 176.348 38.5195L176.141 39.0977C175.669 38.8997 175.211 38.8008 174.766 38.8008C174.414 38.8008 174.139 38.8763 173.941 39.0273C173.743 39.1784 173.645 39.388 173.645 39.6562C173.645 39.8542 173.681 40.0169 173.754 40.1445C173.827 40.2695 173.949 40.3854 174.121 40.4922C174.296 40.5964 174.561 40.7122 174.918 40.8398C175.517 41.0534 175.928 41.2826 176.152 41.5273C176.379 41.7721 176.492 42.0898 176.492 42.4805ZM177.66 44V38.2891H178.324V44H177.66ZM184.355 44H183.598L180.477 39.207H180.445C180.487 39.7695 180.508 40.2852 180.508 40.7539V44H179.895V38.2891H180.645L183.758 43.0625H183.789C183.784 42.9922 183.772 42.7669 183.754 42.3867C183.736 42.0039 183.729 41.7305 183.734 41.5664V38.2891H184.355V44ZM189.109 44H185.926V38.2891H189.109V38.8789H186.59V40.7188H188.957V41.3047H186.59V43.4062H189.109V44ZM193.602 42.4805C193.602 42.9831 193.419 43.375 193.055 43.6562C192.69 43.9375 192.195 44.0781 191.57 44.0781C190.893 44.0781 190.372 43.9909 190.008 43.8164V43.1758C190.242 43.2747 190.497 43.3529 190.773 43.4102C191.049 43.4674 191.323 43.4961 191.594 43.4961C192.036 43.4961 192.37 43.4128 192.594 43.2461C192.818 43.0768 192.93 42.8424 192.93 42.543C192.93 42.3451 192.889 42.1836 192.809 42.0586C192.73 41.931 192.598 41.8138 192.41 41.707C192.225 41.6003 191.943 41.4792 191.562 41.3438C191.031 41.1536 190.651 40.9284 190.422 40.668C190.195 40.4076 190.082 40.0677 190.082 39.6484C190.082 39.2083 190.247 38.8581 190.578 38.5977C190.909 38.3372 191.346 38.207 191.891 38.207C192.458 38.207 192.98 38.3112 193.457 38.5195L193.25 39.0977C192.779 38.8997 192.32 38.8008 191.875 38.8008C191.523 38.8008 191.249 38.8763 191.051 39.0273C190.853 39.1784 190.754 39.388 190.754 39.6562C190.754 39.8542 190.79 40.0169 190.863 40.1445C190.936 40.2695 191.059 40.3854 191.23 40.4922C191.405 40.5964 191.671 40.7122 192.027 40.8398C192.626 41.0534 193.038 41.2826 193.262 41.5273C193.488 41.7721 193.602 42.0898 193.602 42.4805ZM197.992 42.4805C197.992 42.9831 197.81 43.375 197.445 43.6562C197.081 43.9375 196.586 44.0781 195.961 44.0781C195.284 44.0781 194.763 43.9909 194.398 43.8164V43.1758C194.633 43.2747 194.888 43.3529 195.164 43.4102C195.44 43.4674 195.714 43.4961 195.984 43.4961C196.427 43.4961 196.76 43.4128 196.984 43.2461C197.208 43.0768 197.32 42.8424 197.32 42.543C197.32 42.3451 197.28 42.1836 197.199 42.0586C197.121 41.931 196.988 41.8138 196.801 41.707C196.616 41.6003 196.333 41.4792 195.953 41.3438C195.422 41.1536 195.042 40.9284 194.812 40.668C194.586 40.4076 194.473 40.0677 194.473 39.6484C194.473 39.2083 194.638 38.8581 194.969 38.5977C195.299 38.3372 195.737 38.207 196.281 38.207C196.849 38.207 197.371 38.3112 197.848 38.5195L197.641 39.0977C197.169 38.8997 196.711 38.8008 196.266 38.8008C195.914 38.8008 195.639 38.8763 195.441 39.0273C195.243 39.1784 195.145 39.388 195.145 39.6562C195.145 39.8542 195.181 40.0169 195.254 40.1445C195.327 40.2695 195.449 40.3854 195.621 40.4922C195.796 40.5964 196.061 40.7122 196.418 40.8398C197.017 41.0534 197.428 41.2826 197.652 41.5273C197.879 41.7721 197.992 42.0898 197.992 42.4805ZM204.461 42.4805C204.461 42.9831 204.279 43.375 203.914 43.6562C203.549 43.9375 203.055 44.0781 202.43 44.0781C201.753 44.0781 201.232 43.9909 200.867 43.8164V43.1758C201.102 43.2747 201.357 43.3529 201.633 43.4102C201.909 43.4674 202.182 43.4961 202.453 43.4961C202.896 43.4961 203.229 43.4128 203.453 43.2461C203.677 43.0768 203.789 42.8424 203.789 42.543C203.789 42.3451 203.749 42.1836 203.668 42.0586C203.59 41.931 203.457 41.8138 203.27 41.707C203.085 41.6003 202.802 41.4792 202.422 41.3438C201.891 41.1536 201.51 40.9284 201.281 40.668C201.055 40.4076 200.941 40.0677 200.941 39.6484C200.941 39.2083 201.107 38.8581 201.438 38.5977C201.768 38.3372 202.206 38.207 202.75 38.207C203.318 38.207 203.84 38.3112 204.316 38.5195L204.109 39.0977C203.638 38.8997 203.18 38.8008 202.734 38.8008C202.383 38.8008 202.108 38.8763 201.91 39.0273C201.712 39.1784 201.613 39.388 201.613 39.6562C201.613 39.8542 201.65 40.0169 201.723 40.1445C201.796 40.2695 201.918 40.3854 202.09 40.4922C202.264 40.5964 202.53 40.7122 202.887 40.8398C203.486 41.0534 203.897 41.2826 204.121 41.5273C204.348 41.7721 204.461 42.0898 204.461 42.4805ZM209.941 38.2891V41.9844C209.941 42.6354 209.745 43.1471 209.352 43.5195C208.958 43.8919 208.418 44.0781 207.73 44.0781C207.043 44.0781 206.51 43.8906 206.133 43.5156C205.758 43.1406 205.57 42.625 205.57 41.9688V38.2891H206.234V42.0156C206.234 42.4922 206.365 42.8581 206.625 43.1133C206.885 43.3685 207.268 43.4961 207.773 43.4961C208.255 43.4961 208.626 43.3685 208.887 43.1133C209.147 42.8555 209.277 42.487 209.277 42.0078V38.2891H209.941ZM213.902 38.8008C213.275 38.8008 212.779 39.0104 212.414 39.4297C212.052 39.8464 211.871 40.418 211.871 41.1445C211.871 41.8919 212.046 42.4701 212.395 42.8789C212.746 43.2852 213.246 43.4883 213.895 43.4883C214.293 43.4883 214.747 43.4167 215.258 43.2734V43.8555C214.862 44.0039 214.374 44.0781 213.793 44.0781C212.952 44.0781 212.302 43.8229 211.844 43.3125C211.388 42.8021 211.16 42.0768 211.16 41.1367C211.16 40.5482 211.27 40.0326 211.488 39.5898C211.71 39.1471 212.027 38.806 212.441 38.5664C212.858 38.3268 213.348 38.207 213.91 38.207C214.509 38.207 215.033 38.3164 215.48 38.5352L215.199 39.1055C214.767 38.9023 214.335 38.8008 213.902 38.8008ZM218.949 38.8008C218.322 38.8008 217.826 39.0104 217.461 39.4297C217.099 39.8464 216.918 40.418 216.918 41.1445C216.918 41.8919 217.092 42.4701 217.441 42.8789C217.793 43.2852 218.293 43.4883 218.941 43.4883C219.34 43.4883 219.794 43.4167 220.305 43.2734V43.8555C219.909 44.0039 219.421 44.0781 218.84 44.0781C217.999 44.0781 217.349 43.8229 216.891 43.3125C216.435 42.8021 216.207 42.0768 216.207 41.1367C216.207 40.5482 216.316 40.0326 216.535 39.5898C216.757 39.1471 217.074 38.806 217.488 38.5664C217.905 38.3268 218.395 38.207 218.957 38.207C219.556 38.207 220.079 38.3164 220.527 38.5352L220.246 39.1055C219.814 38.9023 219.382 38.8008 218.949 38.8008ZM224.734 44H221.551V38.2891H224.734V38.8789H222.215V40.7188H224.582V41.3047H222.215V43.4062H224.734V44ZM229.227 42.4805C229.227 42.9831 229.044 43.375 228.68 43.6562C228.315 43.9375 227.82 44.0781 227.195 44.0781C226.518 44.0781 225.997 43.9909 225.633 43.8164V43.1758C225.867 43.2747 226.122 43.3529 226.398 43.4102C226.674 43.4674 226.948 43.4961 227.219 43.4961C227.661 43.4961 227.995 43.4128 228.219 43.2461C228.443 43.0768 228.555 42.8424 228.555 42.543C228.555 42.3451 228.514 42.1836 228.434 42.0586C228.355 41.931 228.223 41.8138 228.035 41.707C227.85 41.6003 227.568 41.4792 227.188 41.3438C226.656 41.1536 226.276 40.9284 226.047 40.668C225.82 40.4076 225.707 40.0677 225.707 39.6484C225.707 39.2083 225.872 38.8581 226.203 38.5977C226.534 38.3372 226.971 38.207 227.516 38.207C228.083 38.207 228.605 38.3112 229.082 38.5195L228.875 39.0977C228.404 38.8997 227.945 38.8008 227.5 38.8008C227.148 38.8008 226.874 38.8763 226.676 39.0273C226.478 39.1784 226.379 39.388 226.379 39.6562C226.379 39.8542 226.415 40.0169 226.488 40.1445C226.561 40.2695 226.684 40.3854 226.855 40.4922C227.03 40.5964 227.296 40.7122 227.652 40.8398C228.251 41.0534 228.663 41.2826 228.887 41.5273C229.113 41.7721 229.227 42.0898 229.227 42.4805ZM233.617 42.4805C233.617 42.9831 233.435 43.375 233.07 43.6562C232.706 43.9375 232.211 44.0781 231.586 44.0781C230.909 44.0781 230.388 43.9909 230.023 43.8164V43.1758C230.258 43.2747 230.513 43.3529 230.789 43.4102C231.065 43.4674 231.339 43.4961 231.609 43.4961C232.052 43.4961 232.385 43.4128 232.609 43.2461C232.833 43.0768 232.945 42.8424 232.945 42.543C232.945 42.3451 232.905 42.1836 232.824 42.0586C232.746 41.931 232.613 41.8138 232.426 41.707C232.241 41.6003 231.958 41.4792 231.578 41.3438C231.047 41.1536 230.667 40.9284 230.438 40.668C230.211 40.4076 230.098 40.0677 230.098 39.6484C230.098 39.2083 230.263 38.8581 230.594 38.5977C230.924 38.3372 231.362 38.207 231.906 38.207C232.474 38.207 232.996 38.3112 233.473 38.5195L233.266 39.0977C232.794 38.8997 232.336 38.8008 231.891 38.8008C231.539 38.8008 231.264 38.8763 231.066 39.0273C230.868 39.1784 230.77 39.388 230.77 39.6562C230.77 39.8542 230.806 40.0169 230.879 40.1445C230.952 40.2695 231.074 40.3854 231.246 40.4922C231.421 40.5964 231.686 40.7122 232.043 40.8398C232.642 41.0534 233.053 41.2826 233.277 41.5273C233.504 41.7721 233.617 42.0898 233.617 42.4805Z" fill="white"/>
<defs>
<clipPath id="clip0_1658_4142">
<rect width="52" height="45" fill="white"/>
</clipPath>
</defs>
</svg>
