<svg width="21" height="21" viewBox="0 0 21 21" fill="none" xmlns="http://www.w3.org/2000/svg">
<g id="Group 9656">
<circle id="Ellipse 46" cx="10.5" cy="10.5" r="10" stroke="#ABABAB"/>
<path id="i" d="M11.4141 8.20312V16.7656H10.1172V8.20312H11.4141ZM10.7812 5C10.9948 5 11.1771 5.07031 11.3281 5.21094C11.4844 5.34635 11.5625 5.5599 11.5625 5.85156C11.5625 6.13802 11.4844 6.35156 11.3281 6.49219C11.1771 6.63281 10.9948 6.70312 10.7812 6.70312C10.5573 6.70312 10.3698 6.63281 10.2188 6.49219C10.0729 6.35156 10 6.13802 10 5.85156C10 5.5599 10.0729 5.34635 10.2188 5.21094C10.3698 5.07031 10.5573 5 10.7812 5Z" fill="#ABABAB"/>
</g>
</svg>
