<svg width="439" height="266" viewBox="0 0 439 266" fill="none" xmlns="http://www.w3.org/2000/svg">
<g clip-path="url(#clip0_1658_4646)">
<path d="M405.854 266H116.009C102.43 241.865 94.6805 213.995 94.6805 184.311C94.6805 92.3132 169.114 17.7334 260.93 17.7334C352.749 17.7334 427.18 92.3132 427.18 184.311C427.18 213.995 419.433 241.865 405.854 266Z" fill="#F37326" fill-opacity="0.09"/>
<path d="M375.867 214.733V197M367 205.867H384.733" stroke="#FF6600" stroke-width="1.5" stroke-linecap="round" stroke-linejoin="round"/>
<path d="M93.1004 6.6499L95.9222 23.7781L113.05 26.5999L95.9222 29.4217L93.1004 46.5499L90.2786 29.4217L73.1504 26.5999L90.2786 23.7781L93.1004 6.6499Z" fill="#FF6600"/>
<path d="M62.0667 39.8999L63.6339 49.4161L73.1501 50.9832L63.6339 52.5504L62.0667 62.0666L60.4995 52.5504L50.9834 50.9832L60.4995 49.4161L62.0667 39.8999Z" fill="#FF6600"/>
<path d="M367.842 168.467C406.939 168.467 438.634 136.709 438.634 97.5334C438.634 58.358 406.939 26.6001 367.842 26.6001C328.745 26.6001 297.051 58.358 297.051 97.5334C297.051 136.709 328.745 168.467 367.842 168.467Z" fill="white" stroke="#F37326" stroke-opacity="0.09" stroke-width="1.5"/>
<path d="M367.29 40.7598V59.5283M367.29 133.498V152.267M311.984 97.0653H330.788" stroke="white" stroke-width="1.5" stroke-linecap="round" stroke-linejoin="round"/>
<path d="M400.126 97.5333C400.126 115.284 385.736 129.675 367.984 129.675C350.233 129.675 335.843 115.284 335.843 97.5333C335.843 81.2496 347.952 67.7945 363.658 65.6798C365.074 65.4891 366.517 65.3916 367.984 65.3916C385.736 65.3916 400.126 79.7822 400.126 97.5333Z" fill="#FF6600"/>
<path d="M313.343 95.8708C312.902 95.8708 312.479 96.046 312.168 96.3577C311.856 96.6695 311.681 97.0924 311.681 97.5333C311.681 97.9742 311.856 98.3971 312.168 98.7089C312.479 99.0207 312.902 99.1958 313.343 99.1958V95.8708ZM422.625 99.1958C423.066 99.1958 423.489 99.0207 423.8 98.7089C424.112 98.3971 424.287 97.9742 424.287 97.5333C424.287 97.0924 424.112 96.6695 423.8 96.3577C423.489 96.046 423.066 95.8708 422.625 95.8708V99.1958ZM366.321 152.174C366.321 152.615 366.497 153.038 366.808 153.35C367.12 153.661 367.543 153.837 367.984 153.837C368.425 153.837 368.848 153.661 369.16 153.35C369.471 153.038 369.646 152.615 369.646 152.174H366.321ZM369.646 42.8925C369.646 42.4516 369.471 42.0287 369.16 41.7169C368.848 41.4051 368.425 41.23 367.984 41.23C367.543 41.23 367.12 41.4051 366.808 41.7169C366.497 42.0287 366.321 42.4516 366.321 42.8925H369.646ZM406.554 95.8708C406.113 95.8708 405.69 96.046 405.378 96.3577C405.067 96.6695 404.892 97.0924 404.892 97.5333C404.892 97.9742 405.067 98.3971 405.378 98.7089C405.69 99.0207 406.113 99.1958 406.554 99.1958V95.8708ZM369.646 136.103C369.646 135.662 369.471 135.24 369.16 134.928C368.848 134.616 368.425 134.441 367.984 134.441C367.543 134.441 367.12 134.616 366.808 134.928C366.497 135.24 366.321 135.662 366.321 136.103H369.646ZM329.414 99.1958C329.855 99.1958 330.278 99.0207 330.59 98.7089C330.901 98.3971 331.076 97.9742 331.076 97.5333C331.076 97.0924 330.901 96.6695 330.59 96.3577C330.278 96.046 329.855 95.8708 329.414 95.8708V99.1958ZM366.321 58.9633C366.321 59.4042 366.497 59.8271 366.808 60.1389C367.12 60.4507 367.543 60.6258 367.984 60.6258C368.425 60.6258 368.848 60.4507 369.16 60.1389C369.471 59.8271 369.646 59.4042 369.646 58.9633H366.321ZM313.343 99.1958H322.986V95.8708H313.343V99.1958ZM422.625 95.8708H412.982V99.1958H422.625V95.8708ZM369.646 152.174V142.532H366.321V152.174H369.646ZM366.321 42.8925V52.535H369.646V42.8925H366.321ZM411.32 97.5333C411.32 121.467 391.917 140.869 367.984 140.869V144.194C393.755 144.194 414.645 123.302 414.645 97.5333H411.32ZM367.984 140.869C344.051 140.869 324.648 121.467 324.648 97.5333H321.323C321.323 123.302 342.213 144.194 367.984 144.194V140.869ZM324.648 97.5333C324.648 73.5977 344.051 54.1975 367.984 54.1975V50.8725C342.213 50.8725 321.323 71.7623 321.323 97.5333H324.648ZM367.984 54.1975C391.917 54.1975 411.32 73.5977 411.32 97.5333H414.645C414.645 71.7623 393.755 50.8725 367.984 50.8725V54.1975ZM412.982 95.8708H406.554V99.1958H412.982V95.8708ZM367.984 142.532H369.646V136.103H366.321V142.532H367.984ZM322.986 97.5333V99.1958H329.414V95.8708H322.986V97.5333ZM366.321 52.535V58.9633H369.646V52.535H366.321Z" fill="#FF6600"/>
<path d="M377.162 104.365C375.957 105.703 374.485 106.772 372.84 107.504C371.195 108.235 369.415 108.612 367.615 108.61C365.814 108.612 364.034 108.235 362.389 107.504C360.744 106.772 359.272 105.703 358.067 104.365C359.123 102.804 360.545 101.526 362.21 100.643C363.875 99.7601 365.73 99.2989 367.615 99.3C371.587 99.3 375.089 101.308 377.162 104.365ZM367.615 96.64C369.026 96.64 370.379 96.0795 371.376 95.0818C372.374 94.0841 372.935 92.731 372.935 91.32C372.935 89.9091 372.374 88.5559 371.376 87.5582C370.379 86.5605 369.026 86 367.615 86C366.204 86 364.85 86.5605 363.853 87.5582C362.855 88.5559 362.295 89.9091 362.295 91.32C362.295 92.731 362.855 94.0841 363.853 95.0818C364.85 96.0795 366.204 96.64 367.615 96.64Z" fill="white"/>
<path d="M377.162 104.365C375.957 105.703 374.485 106.772 372.84 107.503C371.195 108.235 369.415 108.612 367.615 108.61C365.814 108.612 364.034 108.235 362.389 107.503C360.744 106.772 359.272 105.703 358.067 104.365C359.123 102.804 360.545 101.526 362.21 100.643C363.875 99.7599 365.73 99.2987 367.615 99.2998C371.587 99.2998 375.089 101.308 377.162 104.365Z" fill="white"/>
<path d="M25 115.733C25 111.03 26.8683 106.52 30.194 103.194C33.5196 99.8683 38.0302 98 42.7333 98H271.05C273.989 98 276.809 99.1677 278.887 101.246C280.966 103.325 282.133 106.144 282.133 109.083V266.467H25V115.733Z" fill="white"/>
<path d="M26.6621 115.733C26.6621 111.471 28.3553 107.383 31.3691 104.37C34.383 101.356 38.4707 99.6626 42.7329 99.6626H271.05C273.548 99.6626 275.944 100.655 277.711 102.422C279.478 104.189 280.47 106.585 280.47 109.083V264.804H26.6621V115.733Z" fill="white" stroke="#F37326" stroke-opacity="0.09" stroke-width="1.5"/>
<path d="M25 266.467V109.083C25 106.732 25.9342 104.477 27.597 102.814C29.2598 101.151 31.5151 100.217 33.8667 100.217H49.3833V266.467H25Z" fill="#FF6600"/>
<path d="M192.914 139.551H125.749C123.693 139.551 122.025 141.219 122.025 143.275C122.025 145.332 123.693 146.999 125.749 146.999H192.914C194.971 146.999 196.638 145.332 196.638 143.275C196.638 141.219 194.971 139.551 192.914 139.551Z" fill="#FF6600"/>
<path d="M225.3 139.551H215.438C213.381 139.551 211.714 141.219 211.714 143.275C211.714 145.332 213.381 146.999 215.438 146.999H225.3C227.357 146.999 229.024 145.332 229.024 143.275C229.024 141.219 227.357 139.551 225.3 139.551Z" fill="#FF6600"/>
<path d="M225.3 183.958H215.438C213.381 183.958 211.714 185.625 211.714 187.682C211.714 189.739 213.381 191.406 215.438 191.406H225.3C227.357 191.406 229.024 189.739 229.024 187.682C229.024 185.625 227.357 183.958 225.3 183.958Z" fill="#E4E6E9"/>
<path d="M225.3 228.371H215.438C213.381 228.371 211.714 230.038 211.714 232.095C211.714 234.152 213.381 235.819 215.438 235.819H225.3C227.357 235.819 229.024 234.152 229.024 232.095C229.024 230.038 227.357 228.371 225.3 228.371Z" fill="#EDEEF0"/>
<path d="M263.331 139.551H246.11C244.053 139.551 242.386 141.219 242.386 143.275C242.386 145.332 244.053 146.999 246.11 146.999H263.331C265.388 146.999 267.055 145.332 267.055 143.275C267.055 141.219 265.388 139.551 263.331 139.551Z" fill="#FF6600"/>
<path d="M263.331 183.958H246.11C244.053 183.958 242.386 185.625 242.386 187.682C242.386 189.739 244.053 191.406 246.11 191.406H263.331C265.388 191.406 267.055 189.739 267.055 187.682C267.055 185.625 265.388 183.958 263.331 183.958Z" fill="#E4E6E9"/>
<path d="M263.331 228.371H246.11C244.053 228.371 242.386 230.038 242.386 232.095C242.386 234.152 244.053 235.819 246.11 235.819H263.331C265.388 235.819 267.055 234.152 267.055 232.095C267.055 230.038 265.388 228.371 263.331 228.371Z" fill="#EDEEF0"/>
<path d="M192.914 183.958H125.749C123.693 183.958 122.025 185.625 122.025 187.682C122.025 189.739 123.693 191.406 125.749 191.406H192.914C194.971 191.406 196.638 189.739 196.638 187.682C196.638 185.625 194.971 183.958 192.914 183.958Z" fill="#E4E6E9"/>
<path d="M192.914 228.371H125.749C123.693 228.371 122.025 230.038 122.025 232.095C122.025 234.152 123.693 235.819 125.749 235.819H192.914C194.971 235.819 196.638 234.152 196.638 232.095C196.638 230.038 194.971 228.371 192.914 228.371Z" fill="#EDEEF0"/>
<path fill-rule="evenodd" clip-rule="evenodd" d="M91.5001 154.303C95.263 154.303 98.8717 152.809 101.532 150.148C104.193 147.487 105.688 143.878 105.688 140.116C105.688 136.353 104.193 132.744 101.532 130.083C98.8717 127.423 95.263 125.928 91.5001 125.928C87.7376 125.928 84.1292 127.422 81.4687 130.083C78.8081 132.743 77.3135 136.352 77.3135 140.114C77.3135 143.877 78.8081 147.485 81.4687 150.146C84.1292 152.806 87.7376 154.303 91.5001 154.303Z" fill="#FF6600"/>
<path d="M101.048 148.728C99.8431 150.066 98.3705 151.136 96.7257 151.867C95.0808 152.598 93.3004 152.975 91.5003 152.973C89.7002 152.975 87.9198 152.598 86.2749 151.867C84.6301 151.136 83.1576 150.066 81.9531 148.728C83.0088 147.168 84.4312 145.89 86.0957 145.007C87.7603 144.123 89.616 143.662 91.5003 143.663C95.4726 143.663 98.9749 145.672 101.048 148.728ZM91.5003 141.003C92.9113 141.003 94.2644 140.443 95.2621 139.445C96.2598 138.447 96.8203 137.094 96.8203 135.683C96.8203 134.272 96.2598 132.919 95.2621 131.921C94.2644 130.924 92.9113 130.363 91.5003 130.363C90.0894 130.363 88.7362 130.924 87.7385 131.921C86.7408 132.919 86.1803 134.272 86.1803 135.683C86.1803 137.094 86.7408 138.447 87.7385 139.445C88.7362 140.443 90.0894 141.003 91.5003 141.003Z" fill="white"/>
<path d="M101.048 148.728C99.8431 150.066 98.3705 151.135 96.7257 151.867C95.0808 152.598 93.3004 152.975 91.5003 152.973C89.7002 152.975 87.9198 152.598 86.2749 151.867C84.6301 151.135 83.1576 150.066 81.9531 148.728C83.0088 147.167 84.4312 145.889 86.0957 145.006C87.7603 144.123 89.616 143.662 91.5003 143.663C95.4726 143.663 98.9749 145.671 101.048 148.728Z" fill="white"/>
<path fill-rule="evenodd" clip-rule="evenodd" d="M91.5001 203.07C95.263 203.07 98.8717 201.575 101.532 198.914C104.193 196.254 105.688 192.645 105.688 188.882C105.688 185.119 104.193 181.511 101.532 178.85C98.8717 176.189 95.263 174.694 91.5001 174.694C87.7376 174.694 84.1292 176.189 81.4687 178.85C78.8081 181.51 77.3135 185.118 77.3135 188.881C77.3135 192.644 78.8081 196.252 81.4687 198.912C84.1292 201.573 87.7376 203.07 91.5001 203.07Z" fill="#C8CCD2"/>
<path d="M101.048 197.495C99.8431 198.833 98.3705 199.902 96.7257 200.633C95.0808 201.365 93.3004 201.742 91.5003 201.74C89.7002 201.742 87.9198 201.365 86.2749 200.633C84.6301 199.902 83.1576 198.833 81.9531 197.495C83.0088 195.934 84.4312 194.656 86.0957 193.773C87.7603 192.89 89.616 192.429 91.5003 192.43C95.4726 192.43 98.9749 194.438 101.048 197.495ZM91.5003 189.77C92.9113 189.77 94.2644 189.209 95.2621 188.212C96.2598 187.214 96.8203 185.861 96.8203 184.45C96.8203 183.039 96.2598 181.686 95.2621 180.688C94.2644 179.69 92.9113 179.13 91.5003 179.13C90.0894 179.13 88.7362 179.69 87.7385 180.688C86.7408 181.686 86.1803 183.039 86.1803 184.45C86.1803 185.861 86.7408 187.214 87.7385 188.212C88.7362 189.209 90.0894 189.77 91.5003 189.77Z" fill="white"/>
<path d="M101.048 197.495C99.8431 198.833 98.3705 199.902 96.7257 200.634C95.0808 201.365 93.3004 201.742 91.5003 201.74C89.7002 201.742 87.9198 201.365 86.2749 200.634C84.6301 199.902 83.1576 198.833 81.9531 197.495C83.0088 195.934 84.4312 194.656 86.0957 193.773C87.7603 192.89 89.616 192.429 91.5003 192.43C95.4726 192.43 98.9749 194.438 101.048 197.495Z" fill="white"/>
<path fill-rule="evenodd" clip-rule="evenodd" d="M91.4997 251.837C93.363 251.836 95.208 251.469 96.9294 250.756C98.6507 250.043 100.215 248.997 101.532 247.679C102.849 246.362 103.894 244.797 104.607 243.076C105.32 241.354 105.687 239.509 105.686 237.646C105.686 235.782 105.319 233.937 104.605 232.216C103.892 230.495 102.847 228.931 101.529 227.613C100.211 226.296 98.6469 225.251 96.9253 224.538C95.2037 223.825 93.3586 223.459 91.4953 223.459C87.7321 223.46 84.1234 224.955 81.4628 227.616C78.8023 230.278 77.308 233.887 77.3086 237.65C77.3092 241.413 78.8046 245.022 81.466 247.682C84.1273 250.343 87.7366 251.837 91.4997 251.837Z" fill="#E4E6E9"/>
<path d="M101.048 246.262C99.8432 247.6 98.3706 248.669 96.7258 249.4C95.0809 250.132 93.3005 250.509 91.5003 250.506C89.7002 250.509 87.9197 250.132 86.2749 249.4C84.63 248.669 83.1575 247.6 81.9531 246.262C83.0088 244.701 84.4312 243.423 86.0957 242.54C87.7603 241.657 89.616 241.195 91.5003 241.196C95.4726 241.196 98.9749 243.205 101.048 246.262ZM91.5003 238.536C92.9113 238.536 94.2644 237.976 95.2621 236.978C96.2598 235.981 96.8203 234.627 96.8203 233.216C96.8203 231.806 96.2598 230.452 95.2621 229.455C94.2644 228.457 92.9113 227.896 91.5003 227.896C90.0894 227.896 88.7362 228.457 87.7385 229.455C86.7408 230.452 86.1803 231.806 86.1803 233.216C86.1803 234.627 86.7408 235.981 87.7385 236.978C88.7362 237.976 90.0894 238.536 91.5003 238.536Z" fill="white"/>
<path d="M101.048 246.262C99.8432 247.6 98.3706 248.669 96.7258 249.401C95.0809 250.132 93.3005 250.509 91.5003 250.507C89.7002 250.509 87.9197 250.132 86.2749 249.401C84.63 248.669 83.1575 247.6 81.9531 246.262C83.0088 244.701 84.4312 243.423 86.0957 242.54C87.7603 241.657 89.616 241.196 91.5003 241.197C95.4726 241.197 98.9749 243.205 101.048 246.262Z" fill="white"/>
<path d="M36.5032 121.616C36.0875 121.769 35.6392 121.853 35.1719 121.853C33.0254 121.853 31.2787 120.09 31.2787 117.923C31.2787 115.756 33.0254 113.993 35.1719 113.993C36.2982 113.993 37.3141 114.479 38.0258 115.253C38.3895 114.896 38.8062 114.594 39.263 114.36C38.2709 113.202 36.8049 112.467 35.1719 112.467C32.1916 112.467 29.7666 114.915 29.7666 117.923C29.7666 120.931 32.1916 123.379 35.1719 123.379C35.6311 123.379 36.077 123.32 36.5032 123.211V121.616Z" fill="white"/>
<path d="M38.135 118.382H38.1421C38.2409 116.974 39.4077 115.859 40.8273 115.859C42.3119 115.859 43.5195 117.078 43.5195 118.577C43.5195 120.075 42.3116 121.294 40.8273 121.294C39.8933 121.294 39.069 120.811 38.5862 120.08V121.845C39.2227 122.291 39.9953 122.553 40.8273 122.553C42.9994 122.553 44.7668 120.769 44.7668 118.576C44.7668 116.384 42.9994 114.6 40.8273 114.6C38.6551 114.6 36.8877 116.384 36.8877 118.577C36.8877 118.598 36.8881 118.62 36.8884 118.642C36.8884 120.151 36.8884 121.662 36.8884 123.172C36.8884 123.921 36.8884 124.671 36.8884 125.421C37.3034 125.183 37.718 124.944 38.1329 124.705C38.1336 122.598 38.1343 120.49 38.135 118.382Z" fill="white"/>
</g>
<defs>
<clipPath id="clip0_1658_4646">
<rect width="439" height="266" fill="white"/>
</clipPath>
</defs>
</svg>
