<svg width="234" height="51" viewBox="0 0 234 51" fill="none" xmlns="http://www.w3.org/2000/svg">
<g clip-path="url(#clip0_1658_4105)">
<path d="M23.3534 31.7812C21.9125 32.3127 20.3582 32.6036 18.7381 32.6036C11.297 32.6036 5.24194 26.4794 5.24194 18.9521C5.24194 11.426 11.297 5.30181 18.7381 5.30181C22.6427 5.30181 26.1646 6.98852 28.6319 9.67764C29.8924 8.4385 31.337 7.38924 32.9206 6.57794C29.4816 2.55226 24.3994 0 18.7381 0C8.4066 0 0 8.50262 0 18.9521C0 29.4028 8.4066 37.9042 18.7381 37.9042C20.3302 37.9042 21.8759 37.702 23.3534 37.3222V31.7812Z" fill="#FF6600"/>
<path d="M29.01 20.5488H29.0344C29.377 15.6575 33.4218 11.7835 38.3431 11.7835C43.49 11.7835 47.6762 16.0188 47.6762 21.2232C47.6762 26.4276 43.4887 30.6629 38.3431 30.6629C35.1053 30.6629 32.2478 28.9848 30.5741 26.4449V32.5765C32.7806 34.1263 35.4588 35.035 38.3431 35.035C45.8732 35.035 52.0002 28.8381 52.0002 21.222C52.0002 13.6059 45.8732 7.41016 38.3431 7.41016C30.813 7.41016 24.686 13.6071 24.686 21.2232C24.686 21.2984 24.6873 21.3736 24.6885 21.4488C24.6885 26.6939 24.6885 31.9403 24.6885 37.1853C24.6885 39.7894 24.6885 42.3947 24.6885 44.9987C26.127 44.1702 27.5642 43.3404 29.0027 42.5118C29.0051 35.1916 29.0076 27.8702 29.01 20.5488Z" fill="#FF6600"/>
</g>
<path d="M77.405 23.356C78.9865 23.356 80.356 23.141 81.5132 22.7109C82.6834 22.2809 83.5127 21.8635 84.0013 21.4587L85.4479 24.2478C84.8693 24.7537 83.8599 25.266 82.4198 25.7846C80.9925 26.3032 79.2759 26.5625 77.2699 26.5625C75.3926 26.5625 73.6503 26.2336 72.043 25.5759C70.4357 24.9182 69.0277 24.0011 67.819 22.8248C66.6231 21.6484 65.6845 20.276 65.003 18.7076C64.3343 17.1391 64 15.4442 64 13.6228C64 11.8013 64.3343 10.1001 65.003 8.51897C65.6716 6.93787 66.6038 5.55915 67.7997 4.38281C69.0084 3.19382 70.4164 2.27046 72.0237 1.61272C73.6439 0.942336 75.3926 0.607142 77.2699 0.607142C79.2759 0.607142 80.9925 0.866442 82.4198 1.38504C83.8599 1.90365 84.8693 2.41592 85.4479 2.92188L84.0013 5.71094C83.5127 5.29353 82.6834 4.87612 81.5132 4.45871C80.356 4.02865 78.9865 3.81362 77.405 3.81362C75.9648 3.81362 74.6468 4.05394 73.451 4.5346C72.2551 5.01525 71.2136 5.69829 70.3264 6.58371C69.452 7.45647 68.7705 8.48735 68.2819 9.67634C67.8061 10.8653 67.5682 12.1618 67.5682 13.5658C67.5682 14.9825 67.8061 16.2917 68.2819 17.4933C68.7705 18.6823 69.452 19.7195 70.3264 20.6049C71.2136 21.4777 72.2551 22.1544 73.451 22.635C74.6468 23.1157 75.9648 23.356 77.405 23.356Z" fill="#362143"/>
<path d="M92.8095 26.1071H89.4342V0H92.8095V26.1071Z" fill="#362143"/>
<path d="M98.0103 26.1071V10.5301H101.366V26.1071H98.0103ZM99.7269 5.19866C99.1225 5.19866 98.6017 4.98996 98.1646 4.57254C97.7402 4.14249 97.5281 3.63021 97.5281 3.03571C97.5281 2.44122 97.7402 1.92894 98.1646 1.49888C98.6017 1.06882 99.1225 0.853794 99.7269 0.853794C100.125 0.853794 100.492 0.954984 100.826 1.15737C101.173 1.35975 101.45 1.62537 101.656 1.95424C101.861 2.27046 101.964 2.63095 101.964 3.03571C101.964 3.63021 101.746 4.14249 101.308 4.57254C100.871 4.98996 100.344 5.19866 99.7269 5.19866Z" fill="#362143"/>
<path d="M108.599 18.9922C108.612 19.9282 108.817 20.782 109.216 21.5536C109.615 22.3251 110.206 22.9386 110.991 23.394C111.788 23.8493 112.765 24.077 113.922 24.077C114.9 24.077 115.729 23.9379 116.41 23.6596C117.105 23.3687 117.671 23.0272 118.108 22.635C118.545 22.2303 118.86 21.8698 119.053 21.5536L120.692 23.5458C120.268 24.1529 119.747 24.6842 119.13 25.1395C118.526 25.5949 117.786 25.9427 116.912 26.183C116.038 26.436 114.97 26.5625 113.71 26.5625C112.013 26.5625 110.541 26.2083 109.293 25.5C108.059 24.779 107.107 23.7861 106.439 22.5212C105.77 21.2437 105.436 19.7827 105.436 18.1384C105.436 16.6205 105.751 15.2545 106.381 14.0402C107.011 12.8132 107.924 11.8456 109.12 11.1373C110.328 10.4289 111.781 10.0748 113.479 10.0748C115.035 10.0748 116.385 10.3973 117.529 11.0424C118.686 11.6749 119.58 12.5729 120.21 13.7366C120.853 14.9003 121.174 16.2917 121.174 17.9107C121.174 18.0119 121.168 18.1953 121.155 18.4609C121.142 18.7139 121.129 18.891 121.117 18.9922H108.599ZM117.973 16.5067C117.96 15.9881 117.806 15.4189 117.51 14.7991C117.227 14.1793 116.764 13.6481 116.121 13.2054C115.478 12.7626 114.61 12.5413 113.517 12.5413C112.386 12.5413 111.473 12.7563 110.778 13.1864C110.097 13.6164 109.595 14.1414 109.274 14.7612C108.953 15.3683 108.766 15.9501 108.715 16.5067H117.973Z" fill="#362143"/>
<path d="M133.733 10.0748C134.775 10.0748 135.784 10.2898 136.761 10.7199C137.751 11.1499 138.562 11.833 139.192 12.769C139.835 13.6923 140.156 14.9003 140.156 16.3929V26.1071H136.761V17.0379C136.761 15.4948 136.395 14.3754 135.662 13.6797C134.929 12.9714 133.984 12.6172 132.827 12.6172C132.068 12.6172 131.335 12.8322 130.628 13.2623C129.934 13.6797 129.361 14.2615 128.911 15.0078C128.461 15.7414 128.236 16.5763 128.236 17.5123V26.1071H124.88V10.5301H128.236V13.3002C128.352 12.8702 128.667 12.4022 129.181 11.8962C129.696 11.3903 130.351 10.9602 131.149 10.606C131.946 10.2519 132.807 10.0748 133.733 10.0748Z" fill="#362143"/>
<path d="M143.194 10.5301H146.3V4.13616H149.636V10.5301H153.706V13.3571H149.636V21.0603C149.636 21.971 149.797 22.6414 150.119 23.0714C150.453 23.5015 150.897 23.7165 151.45 23.7165C151.938 23.7165 152.317 23.628 152.588 23.4509C152.858 23.2738 153.018 23.1536 153.07 23.0904L154.401 25.519C154.323 25.5822 154.118 25.7024 153.783 25.8795C153.449 26.0565 153.018 26.2147 152.491 26.3538C151.964 26.4929 151.347 26.5625 150.639 26.5625C149.405 26.5625 148.37 26.1957 147.534 25.4621C146.711 24.7158 146.3 23.5394 146.3 21.933V13.3571H143.194V10.5301Z" fill="#362143"/>
<path d="M170.316 34H166.979V10.5301H170.374V13.452C170.49 13.0599 170.811 12.5982 171.338 12.067C171.865 11.5357 172.573 11.074 173.46 10.6819C174.36 10.2772 175.389 10.0748 176.546 10.0748C178.012 10.0748 179.31 10.4226 180.442 11.1183C181.586 11.8013 182.48 12.7626 183.123 14.0022C183.779 15.2292 184.107 16.6711 184.107 18.3281C184.107 19.9851 183.772 21.4334 183.104 22.673C182.435 23.8999 181.522 24.8549 180.365 25.5379C179.22 26.221 177.909 26.5625 176.43 26.5625C175.234 26.5625 174.186 26.3411 173.286 25.8984C172.399 25.4557 171.698 24.9561 171.184 24.3996C170.682 23.843 170.393 23.4003 170.316 23.0714V34ZM180.789 18.3281C180.789 17.2024 180.551 16.2284 180.076 15.4062C179.613 14.5841 178.995 13.9453 178.224 13.49C177.452 13.0346 176.617 12.8069 175.716 12.8069C174.726 12.8069 173.826 13.0409 173.016 13.5089C172.206 13.9643 171.563 14.6094 171.087 15.4442C170.612 16.2664 170.374 17.2277 170.374 18.3281C170.374 19.4286 170.612 20.3962 171.087 21.231C171.563 22.0532 172.206 22.692 173.016 23.1473C173.826 23.6027 174.726 23.8304 175.716 23.8304C176.617 23.8304 177.452 23.609 178.224 23.1663C178.995 22.7109 179.613 22.0722 180.076 21.25C180.551 20.4278 180.789 19.4539 180.789 18.3281Z" fill="#362143"/>
<path d="M187.969 26.1071V10.5301H191.325V26.1071H187.969ZM189.686 5.19866C189.082 5.19866 188.561 4.98996 188.124 4.57254C187.699 4.14249 187.487 3.63021 187.487 3.03571C187.487 2.44122 187.699 1.92894 188.124 1.49888C188.561 1.06882 189.082 0.853794 189.686 0.853794C190.085 0.853794 190.451 0.954984 190.785 1.15737C191.132 1.35975 191.409 1.62537 191.615 1.95424C191.82 2.27046 191.923 2.63095 191.923 3.03571C191.923 3.63021 191.705 4.14249 191.267 4.57254C190.83 4.98996 190.303 5.19866 189.686 5.19866Z" fill="#362143"/>
<path d="M199.947 26.1071H196.571V0H199.947V26.1071Z" fill="#362143"/>
<path d="M212.11 26.5625C210.477 26.5625 209.024 26.202 207.751 25.481C206.491 24.76 205.501 23.7861 204.781 22.5592C204.061 21.3196 203.701 19.9219 203.701 18.3661C203.701 16.8103 204.061 15.4062 204.781 14.154C205.501 12.9018 206.491 11.9089 207.751 11.1752C209.024 10.4416 210.477 10.0748 212.11 10.0748C213.73 10.0748 215.164 10.4416 216.411 11.1752C217.672 11.9089 218.655 12.9018 219.362 14.154C220.07 15.4062 220.423 16.8103 220.423 18.3661C220.423 19.9219 220.07 21.3196 219.362 22.5592C218.655 23.7861 217.672 24.76 216.411 25.481C215.164 26.202 213.73 26.5625 212.11 26.5625ZM212.11 23.7355C213.139 23.7355 214.033 23.5015 214.791 23.0335C215.563 22.5655 216.161 21.9267 216.585 21.1172C217.009 20.295 217.222 19.3717 217.222 18.3471C217.222 17.3225 217.009 16.3992 216.585 15.577C216.161 14.7548 215.563 14.1034 214.791 13.6228C214.033 13.1421 213.139 12.9018 212.11 12.9018C211.069 12.9018 210.162 13.1421 209.391 13.6228C208.619 14.1034 208.015 14.7548 207.578 15.577C207.153 16.3992 206.941 17.3225 206.941 18.3471C206.941 19.3717 207.153 20.295 207.578 21.1172C208.015 21.9267 208.619 22.5655 209.391 23.0335C210.162 23.5015 211.069 23.7355 212.11 23.7355Z" fill="#362143"/>
<path d="M222.794 10.5301H225.899V4.13616H229.236V10.5301H233.306V13.3571H229.236V21.0603C229.236 21.971 229.397 22.6414 229.718 23.0714C230.052 23.5015 230.496 23.7165 231.049 23.7165C231.538 23.7165 231.917 23.628 232.187 23.4509C232.457 23.2738 232.618 23.1536 232.669 23.0904L234 25.519C233.923 25.5822 233.717 25.7024 233.383 25.8795C233.048 26.0565 232.618 26.2147 232.091 26.3538C231.563 26.4929 230.946 26.5625 230.239 26.5625C229.004 26.5625 227.969 26.1957 227.134 25.4621C226.311 24.7158 225.899 23.5394 225.899 21.933V13.3571H222.794V10.5301Z" fill="#362143"/>
<path d="M66.8789 44H66.2109V38.875H64.4141V38.2891H68.668V38.875H66.8789V44ZM73.8594 44H73.1953V41.3086H70.1953V44H69.5312V38.2891H70.1953V40.7227H73.1953V38.2891H73.8594V44ZM78.6094 44H75.4297V38.2891H78.6094V38.875H76.0938V40.7227H78.4648V41.3008H76.0938V43.4141H78.6094V44ZM86.2734 38.2891V41.9844C86.2734 42.388 86.1914 42.7474 86.0273 43.0625C85.8659 43.3776 85.6211 43.6263 85.293 43.8086C84.9648 43.9883 84.5534 44.0781 84.0586 44.0781C83.3529 44.0781 82.8151 43.8867 82.4453 43.5039C82.0781 43.1211 81.8945 42.6094 81.8945 41.9688V38.2891H82.5625V41.9883C82.5625 42.4727 82.6901 42.8464 82.9453 43.1094C83.2031 43.3724 83.5872 43.5039 84.0977 43.5039C84.4466 43.5039 84.7318 43.4414 84.9531 43.3164C85.1771 43.1888 85.3424 43.0117 85.4492 42.7852C85.5586 42.556 85.6133 42.2917 85.6133 41.9922V38.2891H86.2734ZM87.7891 44V38.2891H88.4531V43.4062H90.9883V44H87.7891ZM93.7227 44H93.0547V38.875H91.2578V38.2891H95.5117V38.875H93.7227V44ZM96.375 44V38.2891H97.0391V44H96.375ZM101.121 44L99.2031 38.9453H99.1719C99.1823 39.0521 99.1914 39.1823 99.1992 39.3359C99.207 39.4896 99.2135 39.6576 99.2188 39.8398C99.224 40.0195 99.2266 40.2031 99.2266 40.3906V44H98.6094V38.2891H99.5938L101.402 43.0391H101.43L103.266 38.2891H104.242V44H103.586V40.3438C103.586 40.1745 103.589 40.0052 103.594 39.8359C103.599 39.6641 103.605 39.5026 103.613 39.3516C103.621 39.1979 103.629 39.0651 103.637 38.9531H103.605L101.664 44H101.121ZM109.387 44L108.684 42.1875H106.395L105.695 44H105.023L107.258 38.2656H107.855L110.074 44H109.387ZM108.484 41.5977L107.816 39.7969C107.801 39.75 107.775 39.6732 107.738 39.5664C107.704 39.4596 107.669 39.349 107.633 39.2344C107.596 39.1198 107.566 39.0273 107.543 38.957C107.517 39.0638 107.488 39.1706 107.457 39.2773C107.428 39.3815 107.4 39.4792 107.371 39.5703C107.342 39.6589 107.318 39.7344 107.297 39.7969L106.617 41.5977H108.484ZM112.621 44H111.953V38.875H110.156V38.2891H114.41V38.875H112.621V44ZM118.453 44H115.273V38.2891H118.453V38.875H115.938V40.7227H118.309V41.3008H115.938V43.4141H118.453V44ZM123.551 44H122.883V38.875H121.086V38.2891H125.34V38.875H123.551V44ZM131.156 41.1367C131.156 41.5768 131.1 41.9779 130.988 42.3398C130.876 42.6992 130.71 43.0091 130.488 43.2695C130.27 43.5273 129.997 43.7266 129.672 43.8672C129.346 44.0078 128.969 44.0781 128.539 44.0781C128.096 44.0781 127.71 44.0078 127.379 43.8672C127.051 43.7266 126.777 43.526 126.559 43.2656C126.342 43.0052 126.18 42.694 126.07 42.332C125.964 41.9701 125.91 41.569 125.91 41.1289C125.91 40.5456 126.007 40.0339 126.199 39.5938C126.392 39.1536 126.684 38.8112 127.074 38.5664C127.467 38.3216 127.96 38.1992 128.551 38.1992C129.116 38.1992 129.591 38.3203 129.977 38.5625C130.365 38.8047 130.658 39.1458 130.855 39.5859C131.056 40.0234 131.156 40.5404 131.156 41.1367ZM126.609 41.1367C126.609 41.6211 126.678 42.0404 126.816 42.3945C126.954 42.7487 127.165 43.0221 127.449 43.2148C127.736 43.4076 128.099 43.5039 128.539 43.5039C128.982 43.5039 129.344 43.4076 129.625 43.2148C129.909 43.0221 130.118 42.7487 130.254 42.3945C130.389 42.0404 130.457 41.6211 130.457 41.1367C130.457 40.3997 130.302 39.8242 129.992 39.4102C129.685 38.9935 129.204 38.7852 128.551 38.7852C128.108 38.7852 127.743 38.8802 127.457 39.0703C127.171 39.2604 126.957 39.5312 126.816 39.8828C126.678 40.2318 126.609 40.6497 126.609 41.1367ZM137.383 41.1367C137.383 41.5768 137.327 41.9779 137.215 42.3398C137.103 42.6992 136.936 43.0091 136.715 43.2695C136.496 43.5273 136.224 43.7266 135.898 43.8672C135.573 44.0078 135.195 44.0781 134.766 44.0781C134.323 44.0781 133.936 44.0078 133.605 43.8672C133.277 43.7266 133.004 43.526 132.785 43.2656C132.569 43.0052 132.406 42.694 132.297 42.332C132.19 41.9701 132.137 41.569 132.137 41.1289C132.137 40.5456 132.233 40.0339 132.426 39.5938C132.618 39.1536 132.91 38.8112 133.301 38.5664C133.694 38.3216 134.186 38.1992 134.777 38.1992C135.342 38.1992 135.818 38.3203 136.203 38.5625C136.591 38.8047 136.884 39.1458 137.082 39.5859C137.283 40.0234 137.383 40.5404 137.383 41.1367ZM132.836 41.1367C132.836 41.6211 132.905 42.0404 133.043 42.3945C133.181 42.7487 133.392 43.0221 133.676 43.2148C133.962 43.4076 134.326 43.5039 134.766 43.5039C135.208 43.5039 135.57 43.4076 135.852 43.2148C136.135 43.0221 136.345 42.7487 136.48 42.3945C136.616 42.0404 136.684 41.6211 136.684 41.1367C136.684 40.3997 136.529 39.8242 136.219 39.4102C135.911 38.9935 135.431 38.7852 134.777 38.7852C134.335 38.7852 133.97 38.8802 133.684 39.0703C133.397 39.2604 133.184 39.5312 133.043 39.8828C132.905 40.2318 132.836 40.6497 132.836 41.1367ZM138.656 44V38.2891H139.32V43.4062H141.855V44H138.656ZM145.578 44H144.914V38.2891H148.094V38.875H145.578V40.9688H147.941V41.5508H145.578V44ZM154 41.1367C154 41.5768 153.944 41.9779 153.832 42.3398C153.72 42.6992 153.553 43.0091 153.332 43.2695C153.113 43.5273 152.841 43.7266 152.516 43.8672C152.19 44.0078 151.812 44.0781 151.383 44.0781C150.94 44.0781 150.553 44.0078 150.223 43.8672C149.895 43.7266 149.621 43.526 149.402 43.2656C149.186 43.0052 149.023 42.694 148.914 42.332C148.807 41.9701 148.754 41.569 148.754 41.1289C148.754 40.5456 148.85 40.0339 149.043 39.5938C149.236 39.1536 149.527 38.8112 149.918 38.5664C150.311 38.3216 150.803 38.1992 151.395 38.1992C151.96 38.1992 152.435 38.3203 152.82 38.5625C153.208 38.8047 153.501 39.1458 153.699 39.5859C153.9 40.0234 154 40.5404 154 41.1367ZM149.453 41.1367C149.453 41.6211 149.522 42.0404 149.66 42.3945C149.798 42.7487 150.009 43.0221 150.293 43.2148C150.579 43.4076 150.943 43.5039 151.383 43.5039C151.826 43.5039 152.188 43.4076 152.469 43.2148C152.753 43.0221 152.962 42.7487 153.098 42.3945C153.233 42.0404 153.301 41.6211 153.301 41.1367C153.301 40.3997 153.146 39.8242 152.836 39.4102C152.529 38.9935 152.048 38.7852 151.395 38.7852C150.952 38.7852 150.587 38.8802 150.301 39.0703C150.014 39.2604 149.801 39.5312 149.66 39.8828C149.522 40.2318 149.453 40.6497 149.453 41.1367ZM156.816 38.2891C157.285 38.2891 157.672 38.3477 157.977 38.4648C158.284 38.5794 158.513 38.7552 158.664 38.9922C158.815 39.2292 158.891 39.5312 158.891 39.8984C158.891 40.2005 158.836 40.4531 158.727 40.6562C158.617 40.8568 158.474 41.0195 158.297 41.1445C158.12 41.2695 157.931 41.3659 157.73 41.4336L159.297 44H158.523L157.125 41.6172H155.938V44H155.273V38.2891H156.816ZM156.777 38.8633H155.938V41.0547H156.844C157.31 41.0547 157.652 40.9596 157.871 40.7695C158.092 40.5794 158.203 40.2995 158.203 39.9297C158.203 39.5417 158.086 39.2669 157.852 39.1055C157.62 38.944 157.262 38.8633 156.777 38.8633ZM162.289 38.2891H163.906C164.62 38.2891 165.156 38.3958 165.516 38.6094C165.875 38.8229 166.055 39.1862 166.055 39.6992C166.055 39.9206 166.012 40.1198 165.926 40.2969C165.842 40.4714 165.72 40.6159 165.559 40.7305C165.397 40.8451 165.198 40.9245 164.961 40.9688V41.0078C165.211 41.0469 165.432 41.1185 165.625 41.2227C165.818 41.3268 165.969 41.4727 166.078 41.6602C166.188 41.8477 166.242 42.0859 166.242 42.375C166.242 42.7266 166.16 43.0234 165.996 43.2656C165.835 43.5078 165.605 43.6914 165.309 43.8164C165.012 43.9388 164.66 44 164.254 44H162.289V38.2891ZM162.953 40.7383H164.047C164.544 40.7383 164.888 40.6562 165.078 40.4922C165.271 40.3281 165.367 40.0885 165.367 39.7734C165.367 39.4479 165.253 39.2135 165.023 39.0703C164.797 38.9271 164.435 38.8555 163.938 38.8555H162.953V40.7383ZM162.953 41.2969V43.4336H164.141C164.648 43.4336 165.008 43.3346 165.219 43.1367C165.43 42.9362 165.535 42.6667 165.535 42.3281C165.535 42.112 165.487 41.9271 165.391 41.7734C165.297 41.6198 165.143 41.5026 164.93 41.4219C164.719 41.3385 164.436 41.2969 164.082 41.2969H162.953ZM171.781 38.2891V41.9844C171.781 42.388 171.699 42.7474 171.535 43.0625C171.374 43.3776 171.129 43.6263 170.801 43.8086C170.473 43.9883 170.061 44.0781 169.566 44.0781C168.861 44.0781 168.323 43.8867 167.953 43.5039C167.586 43.1211 167.402 42.6094 167.402 41.9688V38.2891H168.07V41.9883C168.07 42.4727 168.198 42.8464 168.453 43.1094C168.711 43.3724 169.095 43.5039 169.605 43.5039C169.954 43.5039 170.24 43.4414 170.461 43.3164C170.685 43.1888 170.85 43.0117 170.957 42.7852C171.066 42.556 171.121 42.2917 171.121 41.9922V38.2891H171.781ZM176.52 42.4805C176.52 42.819 176.435 43.1081 176.266 43.3477C176.099 43.5846 175.865 43.7656 175.562 43.8906C175.26 44.0156 174.905 44.0781 174.496 44.0781C174.28 44.0781 174.076 44.0677 173.883 44.0469C173.69 44.026 173.513 43.9961 173.352 43.957C173.19 43.918 173.048 43.8698 172.926 43.8125V43.1758C173.121 43.2565 173.359 43.332 173.641 43.4023C173.922 43.4701 174.216 43.5039 174.523 43.5039C174.81 43.5039 175.052 43.4661 175.25 43.3906C175.448 43.3125 175.598 43.2018 175.699 43.0586C175.803 42.9128 175.855 42.7383 175.855 42.5352C175.855 42.3398 175.812 42.1771 175.727 42.0469C175.641 41.9141 175.497 41.7943 175.297 41.6875C175.099 41.5781 174.828 41.4622 174.484 41.3398C174.242 41.2539 174.029 41.1602 173.844 41.0586C173.659 40.9544 173.504 40.8372 173.379 40.707C173.254 40.5768 173.159 40.4258 173.094 40.2539C173.031 40.082 173 39.8854 173 39.6641C173 39.3594 173.077 39.099 173.23 38.8828C173.387 38.6641 173.602 38.4974 173.875 38.3828C174.151 38.2656 174.467 38.207 174.824 38.207C175.129 38.207 175.41 38.2357 175.668 38.293C175.928 38.3503 176.167 38.4271 176.383 38.5234L176.176 39.0938C175.97 39.0078 175.751 38.9362 175.52 38.8789C175.29 38.8216 175.053 38.793 174.809 38.793C174.564 38.793 174.357 38.8294 174.188 38.9023C174.021 38.9727 173.893 39.0729 173.805 39.2031C173.716 39.3333 173.672 39.4883 173.672 39.668C173.672 39.8685 173.714 40.0352 173.797 40.168C173.883 40.3008 174.018 40.4193 174.203 40.5234C174.391 40.625 174.638 40.7318 174.945 40.8438C175.281 40.9661 175.566 41.0964 175.801 41.2344C176.035 41.3698 176.214 41.5365 176.336 41.7344C176.458 41.9297 176.52 42.1784 176.52 42.4805ZM177.688 44V38.2891H178.352V44H177.688ZM184.387 44H183.621L180.508 39.2031H180.477C180.484 39.3307 180.493 39.4766 180.504 39.6406C180.514 39.8021 180.522 39.9753 180.527 40.1602C180.535 40.3424 180.539 40.5286 180.539 40.7188V44H179.922V38.2891H180.684L183.785 43.0703H183.812C183.807 42.9792 183.801 42.8503 183.793 42.6836C183.785 42.5143 183.777 42.3333 183.77 42.1406C183.764 41.9453 183.762 41.7643 183.762 41.5977V38.2891H184.387V44ZM189.125 44H185.945V38.2891H189.125V38.875H186.609V40.7227H188.98V41.3008H186.609V43.4141H189.125V44ZM193.613 42.4805C193.613 42.819 193.529 43.1081 193.359 43.3477C193.193 43.5846 192.958 43.7656 192.656 43.8906C192.354 44.0156 191.999 44.0781 191.59 44.0781C191.374 44.0781 191.169 44.0677 190.977 44.0469C190.784 44.026 190.607 43.9961 190.445 43.957C190.284 43.918 190.142 43.8698 190.02 43.8125V43.1758C190.215 43.2565 190.453 43.332 190.734 43.4023C191.016 43.4701 191.31 43.5039 191.617 43.5039C191.904 43.5039 192.146 43.4661 192.344 43.3906C192.542 43.3125 192.691 43.2018 192.793 43.0586C192.897 42.9128 192.949 42.7383 192.949 42.5352C192.949 42.3398 192.906 42.1771 192.82 42.0469C192.734 41.9141 192.591 41.7943 192.391 41.6875C192.193 41.5781 191.922 41.4622 191.578 41.3398C191.336 41.2539 191.122 41.1602 190.938 41.0586C190.753 40.9544 190.598 40.8372 190.473 40.707C190.348 40.5768 190.253 40.4258 190.188 40.2539C190.125 40.082 190.094 39.8854 190.094 39.6641C190.094 39.3594 190.171 39.099 190.324 38.8828C190.48 38.6641 190.695 38.4974 190.969 38.3828C191.245 38.2656 191.561 38.207 191.918 38.207C192.223 38.207 192.504 38.2357 192.762 38.293C193.022 38.3503 193.26 38.4271 193.477 38.5234L193.27 39.0938C193.064 39.0078 192.845 38.9362 192.613 38.8789C192.384 38.8216 192.147 38.793 191.902 38.793C191.658 38.793 191.451 38.8294 191.281 38.9023C191.115 38.9727 190.987 39.0729 190.898 39.2031C190.81 39.3333 190.766 39.4883 190.766 39.668C190.766 39.8685 190.807 40.0352 190.891 40.168C190.977 40.3008 191.112 40.4193 191.297 40.5234C191.484 40.625 191.732 40.7318 192.039 40.8438C192.375 40.9661 192.66 41.0964 192.895 41.2344C193.129 41.3698 193.307 41.5365 193.43 41.7344C193.552 41.9297 193.613 42.1784 193.613 42.4805ZM198.004 42.4805C198.004 42.819 197.919 43.1081 197.75 43.3477C197.583 43.5846 197.349 43.7656 197.047 43.8906C196.745 44.0156 196.389 44.0781 195.98 44.0781C195.764 44.0781 195.56 44.0677 195.367 44.0469C195.174 44.026 194.997 43.9961 194.836 43.957C194.674 43.918 194.533 43.8698 194.41 43.8125V43.1758C194.605 43.2565 194.844 43.332 195.125 43.4023C195.406 43.4701 195.701 43.5039 196.008 43.5039C196.294 43.5039 196.536 43.4661 196.734 43.3906C196.932 43.3125 197.082 43.2018 197.184 43.0586C197.288 42.9128 197.34 42.7383 197.34 42.5352C197.34 42.3398 197.297 42.1771 197.211 42.0469C197.125 41.9141 196.982 41.7943 196.781 41.6875C196.583 41.5781 196.312 41.4622 195.969 41.3398C195.727 41.2539 195.513 41.1602 195.328 41.0586C195.143 40.9544 194.988 40.8372 194.863 40.707C194.738 40.5768 194.643 40.4258 194.578 40.2539C194.516 40.082 194.484 39.8854 194.484 39.6641C194.484 39.3594 194.561 39.099 194.715 38.8828C194.871 38.6641 195.086 38.4974 195.359 38.3828C195.635 38.2656 195.952 38.207 196.309 38.207C196.613 38.207 196.895 38.2357 197.152 38.293C197.413 38.3503 197.651 38.4271 197.867 38.5234L197.66 39.0938C197.454 39.0078 197.236 38.9362 197.004 38.8789C196.775 38.8216 196.538 38.793 196.293 38.793C196.048 38.793 195.841 38.8294 195.672 38.9023C195.505 38.9727 195.378 39.0729 195.289 39.2031C195.201 39.3333 195.156 39.4883 195.156 39.668C195.156 39.8685 195.198 40.0352 195.281 40.168C195.367 40.3008 195.503 40.4193 195.688 40.5234C195.875 40.625 196.122 40.7318 196.43 40.8438C196.766 40.9661 197.051 41.0964 197.285 41.2344C197.52 41.3698 197.698 41.5365 197.82 41.7344C197.943 41.9297 198.004 42.1784 198.004 42.4805ZM204.473 42.4805C204.473 42.819 204.388 43.1081 204.219 43.3477C204.052 43.5846 203.818 43.7656 203.516 43.8906C203.214 44.0156 202.858 44.0781 202.449 44.0781C202.233 44.0781 202.029 44.0677 201.836 44.0469C201.643 44.026 201.466 43.9961 201.305 43.957C201.143 43.918 201.001 43.8698 200.879 43.8125V43.1758C201.074 43.2565 201.312 43.332 201.594 43.4023C201.875 43.4701 202.169 43.5039 202.477 43.5039C202.763 43.5039 203.005 43.4661 203.203 43.3906C203.401 43.3125 203.551 43.2018 203.652 43.0586C203.757 42.9128 203.809 42.7383 203.809 42.5352C203.809 42.3398 203.766 42.1771 203.68 42.0469C203.594 41.9141 203.451 41.7943 203.25 41.6875C203.052 41.5781 202.781 41.4622 202.438 41.3398C202.195 41.2539 201.982 41.1602 201.797 41.0586C201.612 40.9544 201.457 40.8372 201.332 40.707C201.207 40.5768 201.112 40.4258 201.047 40.2539C200.984 40.082 200.953 39.8854 200.953 39.6641C200.953 39.3594 201.03 39.099 201.184 38.8828C201.34 38.6641 201.555 38.4974 201.828 38.3828C202.104 38.2656 202.421 38.207 202.777 38.207C203.082 38.207 203.363 38.2357 203.621 38.293C203.882 38.3503 204.12 38.4271 204.336 38.5234L204.129 39.0938C203.923 39.0078 203.704 38.9362 203.473 38.8789C203.243 38.8216 203.007 38.793 202.762 38.793C202.517 38.793 202.31 38.8294 202.141 38.9023C201.974 38.9727 201.846 39.0729 201.758 39.2031C201.669 39.3333 201.625 39.4883 201.625 39.668C201.625 39.8685 201.667 40.0352 201.75 40.168C201.836 40.3008 201.971 40.4193 202.156 40.5234C202.344 40.625 202.591 40.7318 202.898 40.8438C203.234 40.9661 203.52 41.0964 203.754 41.2344C203.988 41.3698 204.167 41.5365 204.289 41.7344C204.411 41.9297 204.473 42.1784 204.473 42.4805ZM209.961 38.2891V41.9844C209.961 42.388 209.879 42.7474 209.715 43.0625C209.553 43.3776 209.309 43.6263 208.98 43.8086C208.652 43.9883 208.241 44.0781 207.746 44.0781C207.04 44.0781 206.503 43.8867 206.133 43.5039C205.766 43.1211 205.582 42.6094 205.582 41.9688V38.2891H206.25V41.9883C206.25 42.4727 206.378 42.8464 206.633 43.1094C206.891 43.3724 207.275 43.5039 207.785 43.5039C208.134 43.5039 208.419 43.4414 208.641 43.3164C208.865 43.1888 209.03 43.0117 209.137 42.7852C209.246 42.556 209.301 42.2917 209.301 41.9922V38.2891H209.961ZM213.918 38.793C213.603 38.793 213.319 38.8477 213.066 38.957C212.816 39.0638 212.603 39.2201 212.426 39.4258C212.251 39.6289 212.117 39.875 212.023 40.1641C211.93 40.4531 211.883 40.7786 211.883 41.1406C211.883 41.6198 211.957 42.0365 212.105 42.3906C212.257 42.7422 212.48 43.0143 212.777 43.207C213.077 43.3997 213.451 43.4961 213.898 43.4961C214.154 43.4961 214.393 43.4753 214.617 43.4336C214.844 43.3893 215.064 43.3346 215.277 43.2695V43.8477C215.069 43.9258 214.85 43.9831 214.621 44.0195C214.392 44.0586 214.12 44.0781 213.805 44.0781C213.224 44.0781 212.738 43.9583 212.348 43.7188C211.96 43.4766 211.668 43.1354 211.473 42.6953C211.28 42.2552 211.184 41.7357 211.184 41.1367C211.184 40.7044 211.243 40.3099 211.363 39.9531C211.486 39.5938 211.663 39.2839 211.895 39.0234C212.129 38.763 212.415 38.5625 212.754 38.4219C213.095 38.2786 213.486 38.207 213.926 38.207C214.215 38.207 214.493 38.2357 214.762 38.293C215.03 38.3503 215.272 38.4323 215.488 38.5391L215.223 39.1016C215.04 39.0182 214.84 38.9466 214.621 38.8867C214.405 38.8242 214.171 38.793 213.918 38.793ZM218.957 38.793C218.642 38.793 218.358 38.8477 218.105 38.957C217.855 39.0638 217.642 39.2201 217.465 39.4258C217.29 39.6289 217.156 39.875 217.062 40.1641C216.969 40.4531 216.922 40.7786 216.922 41.1406C216.922 41.6198 216.996 42.0365 217.145 42.3906C217.296 42.7422 217.52 43.0143 217.816 43.207C218.116 43.3997 218.49 43.4961 218.938 43.4961C219.193 43.4961 219.432 43.4753 219.656 43.4336C219.883 43.3893 220.103 43.3346 220.316 43.2695V43.8477C220.108 43.9258 219.889 43.9831 219.66 44.0195C219.431 44.0586 219.159 44.0781 218.844 44.0781C218.263 44.0781 217.777 43.9583 217.387 43.7188C216.999 43.4766 216.707 43.1354 216.512 42.6953C216.319 42.2552 216.223 41.7357 216.223 41.1367C216.223 40.7044 216.283 40.3099 216.402 39.9531C216.525 39.5938 216.702 39.2839 216.934 39.0234C217.168 38.763 217.454 38.5625 217.793 38.4219C218.134 38.2786 218.525 38.207 218.965 38.207C219.254 38.207 219.533 38.2357 219.801 38.293C220.069 38.3503 220.311 38.4323 220.527 38.5391L220.262 39.1016C220.079 39.0182 219.879 38.9466 219.66 38.8867C219.444 38.8242 219.21 38.793 218.957 38.793ZM224.734 44H221.555V38.2891H224.734V38.875H222.219V40.7227H224.59V41.3008H222.219V43.4141H224.734V44ZM229.223 42.4805C229.223 42.819 229.138 43.1081 228.969 43.3477C228.802 43.5846 228.568 43.7656 228.266 43.8906C227.964 44.0156 227.608 44.0781 227.199 44.0781C226.983 44.0781 226.779 44.0677 226.586 44.0469C226.393 44.026 226.216 43.9961 226.055 43.957C225.893 43.918 225.751 43.8698 225.629 43.8125V43.1758C225.824 43.2565 226.062 43.332 226.344 43.4023C226.625 43.4701 226.919 43.5039 227.227 43.5039C227.513 43.5039 227.755 43.4661 227.953 43.3906C228.151 43.3125 228.301 43.2018 228.402 43.0586C228.507 42.9128 228.559 42.7383 228.559 42.5352C228.559 42.3398 228.516 42.1771 228.43 42.0469C228.344 41.9141 228.201 41.7943 228 41.6875C227.802 41.5781 227.531 41.4622 227.188 41.3398C226.945 41.2539 226.732 41.1602 226.547 41.0586C226.362 40.9544 226.207 40.8372 226.082 40.707C225.957 40.5768 225.862 40.4258 225.797 40.2539C225.734 40.082 225.703 39.8854 225.703 39.6641C225.703 39.3594 225.78 39.099 225.934 38.8828C226.09 38.6641 226.305 38.4974 226.578 38.3828C226.854 38.2656 227.171 38.207 227.527 38.207C227.832 38.207 228.113 38.2357 228.371 38.293C228.632 38.3503 228.87 38.4271 229.086 38.5234L228.879 39.0938C228.673 39.0078 228.454 38.9362 228.223 38.8789C227.993 38.8216 227.757 38.793 227.512 38.793C227.267 38.793 227.06 38.8294 226.891 38.9023C226.724 38.9727 226.596 39.0729 226.508 39.2031C226.419 39.3333 226.375 39.4883 226.375 39.668C226.375 39.8685 226.417 40.0352 226.5 40.168C226.586 40.3008 226.721 40.4193 226.906 40.5234C227.094 40.625 227.341 40.7318 227.648 40.8438C227.984 40.9661 228.27 41.0964 228.504 41.2344C228.738 41.3698 228.917 41.5365 229.039 41.7344C229.161 41.9297 229.223 42.1784 229.223 42.4805ZM233.613 42.4805C233.613 42.819 233.529 43.1081 233.359 43.3477C233.193 43.5846 232.958 43.7656 232.656 43.8906C232.354 44.0156 231.999 44.0781 231.59 44.0781C231.374 44.0781 231.169 44.0677 230.977 44.0469C230.784 44.026 230.607 43.9961 230.445 43.957C230.284 43.918 230.142 43.8698 230.02 43.8125V43.1758C230.215 43.2565 230.453 43.332 230.734 43.4023C231.016 43.4701 231.31 43.5039 231.617 43.5039C231.904 43.5039 232.146 43.4661 232.344 43.3906C232.542 43.3125 232.691 43.2018 232.793 43.0586C232.897 42.9128 232.949 42.7383 232.949 42.5352C232.949 42.3398 232.906 42.1771 232.82 42.0469C232.734 41.9141 232.591 41.7943 232.391 41.6875C232.193 41.5781 231.922 41.4622 231.578 41.3398C231.336 41.2539 231.122 41.1602 230.938 41.0586C230.753 40.9544 230.598 40.8372 230.473 40.707C230.348 40.5768 230.253 40.4258 230.188 40.2539C230.125 40.082 230.094 39.8854 230.094 39.6641C230.094 39.3594 230.171 39.099 230.324 38.8828C230.48 38.6641 230.695 38.4974 230.969 38.3828C231.245 38.2656 231.561 38.207 231.918 38.207C232.223 38.207 232.504 38.2357 232.762 38.293C233.022 38.3503 233.26 38.4271 233.477 38.5234L233.27 39.0938C233.064 39.0078 232.845 38.9362 232.613 38.8789C232.384 38.8216 232.147 38.793 231.902 38.793C231.658 38.793 231.451 38.8294 231.281 38.9023C231.115 38.9727 230.987 39.0729 230.898 39.2031C230.81 39.3333 230.766 39.4883 230.766 39.668C230.766 39.8685 230.807 40.0352 230.891 40.168C230.977 40.3008 231.112 40.4193 231.297 40.5234C231.484 40.625 231.732 40.7318 232.039 40.8438C232.375 40.9661 232.66 41.0964 232.895 41.2344C233.129 41.3698 233.307 41.5365 233.43 41.7344C233.552 41.9297 233.613 42.1784 233.613 42.4805Z" fill="#362143"/>
<defs>
<clipPath id="clip0_1658_4105">
<rect width="52" height="45" fill="white"/>
</clipPath>
</defs>
</svg>
